<mxfile modified="2023-11-14T15:06:45.803Z" host="Electron" agent="Mozilla/5.0 (Macintosh; Intel Mac OS X 10_15_7) AppleWebKit/537.36 (KHTML, like Gecko) draw.io/21.6.8 Chrome/114.0.5735.289 Electron/25.5.0 Safari/537.36" etag="qYOHnJafznhGmHN8diuQ" version="21.6.8" type="device" pages="16">
  <diagram id="mHdgXSSDg3P1Vtlx_zm2" name="overview">
    <mxGraphModel dx="1434" dy="775" grid="0" gridSize="10" guides="1" tooltips="1" connect="1" arrows="1" fold="1" page="1" pageScale="1" pageWidth="1169" pageHeight="827" math="0" shadow="0">
      <root>
        <mxCell id="0" />
        <mxCell id="1" parent="0" />
        <mxCell id="3fQte9pRHBFsXC9MxjXT-3" value="" style="rounded=0;whiteSpace=wrap;html=1;align=left;fillColor=#ffcd28;strokeColor=#000000;gradientColor=#ffa500;" parent="1" vertex="1">
          <mxGeometry x="20" y="20" width="60" height="20" as="geometry" />
        </mxCell>
        <mxCell id="3fQte9pRHBFsXC9MxjXT-4" value="Area 6 - Discovery" style="rounded=0;whiteSpace=wrap;html=1;align=left;verticalAlign=top;" parent="1" vertex="1">
          <mxGeometry x="20" y="40" width="1060" height="770" as="geometry" />
        </mxCell>
        <mxCell id="3fQte9pRHBFsXC9MxjXT-1" value="" style="rounded=0;whiteSpace=wrap;html=1;align=left;fillColor=#ffcd28;strokeColor=#000000;gradientColor=#ffa500;" parent="1" vertex="1">
          <mxGeometry x="62" y="85" width="40" height="13" as="geometry" />
        </mxCell>
        <mxCell id="3fQte9pRHBFsXC9MxjXT-2" value="0601&lt;br&gt;Open Discovery Engines and Services" style="rounded=0;whiteSpace=wrap;html=1;align=left;verticalAlign=top;" parent="1" vertex="1">
          <mxGeometry x="62" y="98" width="140" height="80" as="geometry" />
        </mxCell>
        <mxCell id="3fQte9pRHBFsXC9MxjXT-11" value="" style="rounded=0;whiteSpace=wrap;html=1;align=left;fillColor=#ffcd28;strokeColor=#000000;gradientColor=#ffa500;" parent="1" vertex="1">
          <mxGeometry x="384" y="87" width="40" height="13" as="geometry" />
        </mxCell>
        <mxCell id="3fQte9pRHBFsXC9MxjXT-12" value="0610&lt;br&gt;Annotations" style="rounded=0;whiteSpace=wrap;html=1;align=left;verticalAlign=top;" parent="1" vertex="1">
          <mxGeometry x="384" y="100" width="140" height="80" as="geometry" />
        </mxCell>
        <mxCell id="3fQte9pRHBFsXC9MxjXT-15" value="" style="rounded=0;whiteSpace=wrap;html=1;align=left;fillColor=#ffcd28;strokeColor=#000000;gradientColor=#ffa500;" parent="1" vertex="1">
          <mxGeometry x="543" y="87" width="40" height="13" as="geometry" />
        </mxCell>
        <mxCell id="3fQte9pRHBFsXC9MxjXT-16" value="0612&lt;br&gt;Annotation Reviews" style="rounded=0;whiteSpace=wrap;html=1;align=left;verticalAlign=top;" parent="1" vertex="1">
          <mxGeometry x="543" y="100" width="140" height="80" as="geometry" />
        </mxCell>
        <mxCell id="3fQte9pRHBFsXC9MxjXT-13" value="" style="rounded=0;whiteSpace=wrap;html=1;align=left;fillColor=#ffcd28;strokeColor=#000000;gradientColor=#ffa500;" parent="1" vertex="1">
          <mxGeometry x="226" y="87" width="40" height="13" as="geometry" />
        </mxCell>
        <mxCell id="3fQte9pRHBFsXC9MxjXT-14" value="0605&lt;br&gt;Open Discovery Analysis Reports" style="rounded=0;whiteSpace=wrap;html=1;align=left;verticalAlign=top;" parent="1" vertex="1">
          <mxGeometry x="226" y="100" width="140" height="80" as="geometry" />
        </mxCell>
        <mxCell id="3fQte9pRHBFsXC9MxjXT-17" value="" style="rounded=0;whiteSpace=wrap;html=1;align=left;fillColor=#ffcd28;strokeColor=#000000;gradientColor=#ffa500;" parent="1" vertex="1">
          <mxGeometry x="221" y="197" width="40" height="13" as="geometry" />
        </mxCell>
        <mxCell id="3fQte9pRHBFsXC9MxjXT-18" value="0617&lt;br&gt;Data Field Analysis" style="rounded=0;whiteSpace=wrap;html=1;align=left;verticalAlign=top;" parent="1" vertex="1">
          <mxGeometry x="221" y="210" width="140" height="80" as="geometry" />
        </mxCell>
        <mxCell id="3fQte9pRHBFsXC9MxjXT-19" value="" style="rounded=0;whiteSpace=wrap;html=1;align=left;fillColor=#ffcd28;strokeColor=#000000;gradientColor=#ffa500;" parent="1" vertex="1">
          <mxGeometry x="62" y="317.5" width="40" height="13" as="geometry" />
        </mxCell>
        <mxCell id="3fQte9pRHBFsXC9MxjXT-20" value="0620&lt;br&gt;Data Profiling&lt;br&gt;" style="rounded=0;whiteSpace=wrap;html=1;align=left;verticalAlign=top;" parent="1" vertex="1">
          <mxGeometry x="62" y="330.5" width="140" height="80" as="geometry" />
        </mxCell>
        <mxCell id="3fQte9pRHBFsXC9MxjXT-21" value="" style="rounded=0;whiteSpace=wrap;html=1;align=left;fillColor=#ffcd28;strokeColor=#000000;gradientColor=#ffa500;" parent="1" vertex="1">
          <mxGeometry x="221.5" y="317.5" width="40" height="13" as="geometry" />
        </mxCell>
        <mxCell id="3fQte9pRHBFsXC9MxjXT-22" value="0625&lt;br&gt;Data Class Discovery&lt;br&gt;" style="rounded=0;whiteSpace=wrap;html=1;align=left;verticalAlign=top;" parent="1" vertex="1">
          <mxGeometry x="221.5" y="330.5" width="140" height="80" as="geometry" />
        </mxCell>
        <mxCell id="3fQte9pRHBFsXC9MxjXT-29" value="" style="rounded=0;whiteSpace=wrap;html=1;align=left;fillColor=#ffcd28;strokeColor=#000000;gradientColor=#ffa500;" parent="1" vertex="1">
          <mxGeometry x="377.5" y="318.5" width="40" height="13" as="geometry" />
        </mxCell>
        <mxCell id="3fQte9pRHBFsXC9MxjXT-30" value="0630&lt;br&gt;Semantic Discovery&lt;br&gt;" style="rounded=0;whiteSpace=wrap;html=1;align=left;verticalAlign=top;" parent="1" vertex="1">
          <mxGeometry x="377.5" y="331.5" width="140" height="80" as="geometry" />
        </mxCell>
        <mxCell id="3fQte9pRHBFsXC9MxjXT-31" value="" style="rounded=0;whiteSpace=wrap;html=1;align=left;fillColor=#ffcd28;strokeColor=#000000;gradientColor=#ffa500;" parent="1" vertex="1">
          <mxGeometry x="533.5" y="318.5" width="40" height="13" as="geometry" />
        </mxCell>
        <mxCell id="3fQte9pRHBFsXC9MxjXT-32" value="0635&lt;br&gt;Classification Discovery&lt;br&gt;" style="rounded=0;whiteSpace=wrap;html=1;align=left;verticalAlign=top;" parent="1" vertex="1">
          <mxGeometry x="533.5" y="331.5" width="140" height="80" as="geometry" />
        </mxCell>
        <mxCell id="3fQte9pRHBFsXC9MxjXT-33" value="" style="rounded=0;whiteSpace=wrap;html=1;align=left;fillColor=#ffcd28;strokeColor=#000000;gradientColor=#ffa500;" parent="1" vertex="1">
          <mxGeometry x="62" y="445" width="40" height="13" as="geometry" />
        </mxCell>
        <mxCell id="3fQte9pRHBFsXC9MxjXT-34" value="0650&lt;br&gt;Relationship Discovery&lt;br&gt;" style="rounded=0;whiteSpace=wrap;html=1;align=left;verticalAlign=top;" parent="1" vertex="1">
          <mxGeometry x="62" y="458" width="140" height="80" as="geometry" />
        </mxCell>
        <mxCell id="3fQte9pRHBFsXC9MxjXT-35" value="" style="rounded=0;whiteSpace=wrap;html=1;align=left;fillColor=#ffcd28;strokeColor=#000000;gradientColor=#ffa500;" parent="1" vertex="1">
          <mxGeometry x="221.5" y="445" width="40" height="13" as="geometry" />
        </mxCell>
        <mxCell id="3fQte9pRHBFsXC9MxjXT-36" value="0660&lt;br&gt;Data Source Measurements&lt;br&gt;" style="rounded=0;whiteSpace=wrap;html=1;align=left;verticalAlign=top;" parent="1" vertex="1">
          <mxGeometry x="221.5" y="458" width="140" height="80" as="geometry" />
        </mxCell>
        <mxCell id="3fQte9pRHBFsXC9MxjXT-37" value="" style="rounded=0;whiteSpace=wrap;html=1;align=left;fillColor=#ffcd28;strokeColor=#000000;gradientColor=#ffa500;" parent="1" vertex="1">
          <mxGeometry x="62" y="572" width="40" height="13" as="geometry" />
        </mxCell>
        <mxCell id="3fQte9pRHBFsXC9MxjXT-38" value="0690&lt;br&gt;Request For Action&lt;br&gt;" style="rounded=0;whiteSpace=wrap;html=1;align=left;verticalAlign=top;" parent="1" vertex="1">
          <mxGeometry x="62" y="585" width="140" height="80" as="geometry" />
        </mxCell>
        <mxCell id="3fQte9pRHBFsXC9MxjXT-23" value="" style="rounded=0;whiteSpace=wrap;html=1;align=left;fillColor=#ffcd28;strokeColor=#000000;gradientColor=#ffa500;" parent="1" vertex="1">
          <mxGeometry x="701" y="318.5" width="40" height="13" as="geometry" />
        </mxCell>
        <mxCell id="3fQte9pRHBFsXC9MxjXT-24" value="0640&lt;br&gt;Quality Scores&lt;br&gt;" style="rounded=0;whiteSpace=wrap;html=1;align=left;verticalAlign=top;" parent="1" vertex="1">
          <mxGeometry x="701" y="331.5" width="140" height="80" as="geometry" />
        </mxCell>
        <mxCell id="3fQte9pRHBFsXC9MxjXT-25" value="" style="rounded=0;whiteSpace=wrap;html=1;align=left;fillColor=#ffcd28;strokeColor=#000000;gradientColor=#ffa500;" parent="1" vertex="1">
          <mxGeometry x="62" y="197" width="40" height="13" as="geometry" />
        </mxCell>
        <mxCell id="3fQte9pRHBFsXC9MxjXT-26" value="0615&lt;br&gt;Schema Extraction" style="rounded=0;whiteSpace=wrap;html=1;align=left;verticalAlign=top;" parent="1" vertex="1">
          <mxGeometry x="62" y="210" width="140" height="80" as="geometry" />
        </mxCell>
      </root>
    </mxGraphModel>
  </diagram>
  <diagram id="PF7sQZpvbbHVOkO-_uGT" name="0601-Open-Discovery-Engine">
    <mxGraphModel dx="1106" dy="773" grid="0" gridSize="10" guides="1" tooltips="1" connect="1" arrows="1" fold="1" page="1" pageScale="1" pageWidth="1169" pageHeight="827" math="0" shadow="0">
      <root>
        <mxCell id="3fQte9pRHBFsXC9MxjXT-0" />
        <mxCell id="3fQte9pRHBFsXC9MxjXT-1" parent="3fQte9pRHBFsXC9MxjXT-0" />
        <mxCell id="3fQte9pRHBFsXC9MxjXT-2" value="" style="rounded=0;whiteSpace=wrap;html=1;align=left;fillColor=#ffcd28;strokeColor=#d79b00;gradientColor=#ffa500;" parent="3fQte9pRHBFsXC9MxjXT-1" vertex="1">
          <mxGeometry x="13" y="37" width="60" height="20" as="geometry" />
        </mxCell>
        <mxCell id="3fQte9pRHBFsXC9MxjXT-3" value="0601 - Open Discovery Engines and Services" style="rounded=0;whiteSpace=wrap;html=1;align=left;verticalAlign=top;" parent="3fQte9pRHBFsXC9MxjXT-1" vertex="1">
          <mxGeometry x="13" y="57" width="1060" height="770" as="geometry" />
        </mxCell>
        <mxCell id="oZn78KsxcvNaEc5IXUbw-1" style="edgeStyle=orthogonalEdgeStyle;rounded=0;orthogonalLoop=1;jettySize=auto;html=1;exitX=0.5;exitY=0;exitDx=0;exitDy=0;entryX=0.5;entryY=1;entryDx=0;entryDy=0;endArrow=block;endFill=0;endSize=16;" parent="3fQte9pRHBFsXC9MxjXT-1" source="3fQte9pRHBFsXC9MxjXT-12" target="oZn78KsxcvNaEc5IXUbw-0" edge="1">
          <mxGeometry relative="1" as="geometry" />
        </mxCell>
        <mxCell id="3fQte9pRHBFsXC9MxjXT-12" value="«entity»&lt;br&gt;&lt;b&gt;OpenDiscoveryEngine&lt;/b&gt;" style="html=1;strokeColor=#d79b00;align=center;fillColor=#ffcd28;gradientColor=#ffa500;" parent="3fQte9pRHBFsXC9MxjXT-1" vertex="1">
          <mxGeometry x="108" y="254.5" width="206" height="50" as="geometry" />
        </mxCell>
        <mxCell id="3fQte9pRHBFsXC9MxjXT-13" value="" style="rounded=0;whiteSpace=wrap;html=1;strokeColor=#000000;gradientColor=#ffffff;align=center;" parent="3fQte9pRHBFsXC9MxjXT-1" vertex="1">
          <mxGeometry x="108" y="304.5" width="206" height="31" as="geometry" />
        </mxCell>
        <mxCell id="oZn78KsxcvNaEc5IXUbw-0" value="«entity»&lt;br&gt;&lt;b&gt;GovernanceEngine&lt;/b&gt;" style="html=1;strokeColor=#82b366;align=center;fillColor=#d5e8d4;gradientColor=#97d077;" parent="3fQte9pRHBFsXC9MxjXT-1" vertex="1">
          <mxGeometry x="108" y="143" width="206" height="50" as="geometry" />
        </mxCell>
        <mxCell id="Zc_v_n2pqMLZeFrDeEx0-0" style="edgeStyle=orthogonalEdgeStyle;rounded=0;orthogonalLoop=1;jettySize=auto;html=1;exitX=0.5;exitY=0;exitDx=0;exitDy=0;endArrow=block;endFill=0;endSize=16;" parent="3fQte9pRHBFsXC9MxjXT-1" source="Zc_v_n2pqMLZeFrDeEx0-1" target="Zc_v_n2pqMLZeFrDeEx0-3" edge="1">
          <mxGeometry relative="1" as="geometry" />
        </mxCell>
        <mxCell id="Zc_v_n2pqMLZeFrDeEx0-1" value="«entity»&lt;br&gt;&lt;b&gt;OpenDiscoveryService&lt;/b&gt;" style="html=1;strokeColor=#d79b00;align=center;fillColor=#ffcd28;gradientColor=#ffa500;" parent="3fQte9pRHBFsXC9MxjXT-1" vertex="1">
          <mxGeometry x="413" y="257.5" width="206" height="50" as="geometry" />
        </mxCell>
        <mxCell id="Zc_v_n2pqMLZeFrDeEx0-2" value="" style="rounded=0;whiteSpace=wrap;html=1;strokeColor=#000000;gradientColor=#ffffff;align=left;" parent="3fQte9pRHBFsXC9MxjXT-1" vertex="1">
          <mxGeometry x="413.5" y="306.5" width="206" height="26" as="geometry" />
        </mxCell>
        <mxCell id="Zc_v_n2pqMLZeFrDeEx0-3" value="«entity»&lt;br&gt;&lt;b&gt;GovernanceService&lt;/b&gt;" style="html=1;strokeColor=#82b366;align=center;fillColor=#d5e8d4;gradientColor=#97d077;" parent="3fQte9pRHBFsXC9MxjXT-1" vertex="1">
          <mxGeometry x="414.5" y="143" width="203" height="50" as="geometry" />
        </mxCell>
        <mxCell id="Zc_v_n2pqMLZeFrDeEx0-4" value="«entity»&lt;br&gt;&lt;b&gt;OpenDiscoveryPipeline&lt;/b&gt;" style="html=1;strokeColor=#d79b00;align=center;fillColor=#ffcd28;gradientColor=#ffa500;" parent="3fQte9pRHBFsXC9MxjXT-1" vertex="1">
          <mxGeometry x="414.5" y="393" width="206" height="50" as="geometry" />
        </mxCell>
        <mxCell id="Zc_v_n2pqMLZeFrDeEx0-5" value="" style="rounded=0;whiteSpace=wrap;html=1;strokeColor=#000000;gradientColor=#ffffff;align=left;" parent="3fQte9pRHBFsXC9MxjXT-1" vertex="1">
          <mxGeometry x="415" y="443.5" width="206" height="32" as="geometry" />
        </mxCell>
        <mxCell id="Zc_v_n2pqMLZeFrDeEx0-6" style="edgeStyle=orthogonalEdgeStyle;rounded=0;html=1;exitX=0;exitY=0.5;endArrow=none;endFill=0;jettySize=auto;orthogonalLoop=1;entryX=0.5;entryY=0;" parent="3fQte9pRHBFsXC9MxjXT-1" source="Zc_v_n2pqMLZeFrDeEx0-7" target="Zc_v_n2pqMLZeFrDeEx0-4" edge="1">
          <mxGeometry relative="1" as="geometry" />
        </mxCell>
        <mxCell id="Zc_v_n2pqMLZeFrDeEx0-7" value="" style="triangle;whiteSpace=wrap;html=1;strokeColor=#000000;gradientColor=#ffffff;align=center;rotation=-90;" parent="3fQte9pRHBFsXC9MxjXT-1" vertex="1">
          <mxGeometry x="509" y="331" width="17" height="21" as="geometry" />
        </mxCell>
      </root>
    </mxGraphModel>
  </diagram>
  <diagram name="0605-Open-Discovery-Analysis-Reports" id="PMQtC5GLAhQ_0c-HItpj">
    <mxGraphModel dx="1089" dy="705" grid="0" gridSize="10" guides="1" tooltips="1" connect="1" arrows="1" fold="1" page="1" pageScale="1" pageWidth="1169" pageHeight="827" math="0" shadow="0">
      <root>
        <mxCell id="3fQte9pRHBFsXC9MxjXT-0" />
        <mxCell id="3fQte9pRHBFsXC9MxjXT-1" parent="3fQte9pRHBFsXC9MxjXT-0" />
        <mxCell id="3fQte9pRHBFsXC9MxjXT-2" value="" style="rounded=0;whiteSpace=wrap;html=1;align=left;fillColor=#f0a30a;strokeColor=#000000;fontColor=#ffffff;" parent="3fQte9pRHBFsXC9MxjXT-1" vertex="1">
          <mxGeometry x="20" y="20" width="60" height="20" as="geometry" />
        </mxCell>
        <mxCell id="3fQte9pRHBFsXC9MxjXT-3" value="0605 - Open Discovery Analysis Reports" style="rounded=0;whiteSpace=wrap;html=1;align=left;verticalAlign=top;" parent="3fQte9pRHBFsXC9MxjXT-1" vertex="1">
          <mxGeometry x="20" y="40" width="1060" height="770" as="geometry" />
        </mxCell>
        <mxCell id="3fQte9pRHBFsXC9MxjXT-4" value="«entity»&lt;br&gt;&lt;b&gt;OpenDiscoveryAnalysisReport&lt;/b&gt;" style="html=1;strokeColor=#d79b00;align=center;fillColor=#ffcd28;gradientColor=#ffa500;" parent="3fQte9pRHBFsXC9MxjXT-1" vertex="1">
          <mxGeometry x="107" y="256.5" width="324" height="50" as="geometry" />
        </mxCell>
        <mxCell id="3fQte9pRHBFsXC9MxjXT-5" value="&lt;p style=&quot;text-align: left&quot;&gt;displayName : string&lt;br&gt;description : string&lt;br&gt;executionDate : date&lt;br&gt;&lt;span&gt;analysisParameters : map&amp;lt;string, string&amp;gt;&lt;br&gt;&lt;/span&gt;&lt;span&gt;discoveryAnalysisStep : string&lt;br&gt;&lt;/span&gt;&lt;span&gt;discoveryServiceStatus : DiscoveryServiceRequestStatus&lt;/span&gt;&lt;/p&gt;" style="rounded=0;whiteSpace=wrap;html=1;strokeColor=#000000;gradientColor=#ffffff;align=left;" parent="3fQte9pRHBFsXC9MxjXT-1" vertex="1">
          <mxGeometry x="107" y="306.5" width="325" height="110" as="geometry" />
        </mxCell>
        <mxCell id="3fQte9pRHBFsXC9MxjXT-9" value="" style="edgeStyle=orthogonalEdgeStyle;rounded=0;html=1;endArrow=none;endFill=0;jettySize=auto;orthogonalLoop=1;" parent="3fQte9pRHBFsXC9MxjXT-1" source="3fQte9pRHBFsXC9MxjXT-6" target="3fQte9pRHBFsXC9MxjXT-4" edge="1">
          <mxGeometry relative="1" as="geometry" />
        </mxCell>
        <mxCell id="iGOhSuVCxT9hs5b3waeM-2" value="" style="edgeStyle=orthogonalEdgeStyle;rounded=0;orthogonalLoop=1;jettySize=auto;html=1;endArrow=none;endFill=0;" parent="3fQte9pRHBFsXC9MxjXT-1" source="3fQte9pRHBFsXC9MxjXT-6" target="3fQte9pRHBFsXC9MxjXT-4" edge="1">
          <mxGeometry relative="1" as="geometry" />
        </mxCell>
        <mxCell id="3fQte9pRHBFsXC9MxjXT-6" value="«entity»&lt;br&gt;&lt;b&gt;Referenceable&lt;/b&gt;" style="html=1;strokeColor=#d6b656;align=center;fillColor=#fff2cc;gradientColor=#ffd966;" parent="3fQte9pRHBFsXC9MxjXT-1" vertex="1">
          <mxGeometry x="189" y="135" width="160" height="50" as="geometry" />
        </mxCell>
        <mxCell id="3fQte9pRHBFsXC9MxjXT-8" value="" style="triangle;whiteSpace=wrap;html=1;strokeColor=#000000;gradientColor=#ffffff;align=center;rotation=-90;" parent="3fQte9pRHBFsXC9MxjXT-1" vertex="1">
          <mxGeometry x="261" y="183" width="17" height="21" as="geometry" />
        </mxCell>
        <mxCell id="3fQte9pRHBFsXC9MxjXT-12" value="«entity»&lt;br&gt;&lt;b&gt;OpenDiscoveryEngine&lt;/b&gt;" style="html=1;strokeColor=#d79b00;align=center;fillColor=#ffcd28;gradientColor=#ffa500;" parent="3fQte9pRHBFsXC9MxjXT-1" vertex="1">
          <mxGeometry x="799" y="256.5" width="181" height="50" as="geometry" />
        </mxCell>
        <mxCell id="3fQte9pRHBFsXC9MxjXT-13" value="" style="endArrow=oval;html=1;entryX=1;entryY=0.5;exitX=0;exitY=0.5;endFill=1;" parent="3fQte9pRHBFsXC9MxjXT-1" source="3fQte9pRHBFsXC9MxjXT-12" target="3fQte9pRHBFsXC9MxjXT-4" edge="1">
          <mxGeometry width="50" height="50" relative="1" as="geometry">
            <mxPoint x="482" y="755" as="sourcePoint" />
            <mxPoint x="532" y="705" as="targetPoint" />
          </mxGeometry>
        </mxCell>
        <mxCell id="3fQte9pRHBFsXC9MxjXT-14" value="«relationship»&lt;br&gt;&lt;b&gt;DiscoveryEngineReport&lt;/b&gt;" style="html=1;strokeColor=#d79b00;align=center;fillColor=#ffcd28;gradientColor=#ffa500;" parent="3fQte9pRHBFsXC9MxjXT-1" vertex="1">
          <mxGeometry x="522" y="133" width="206" height="50" as="geometry" />
        </mxCell>
        <mxCell id="3fQte9pRHBFsXC9MxjXT-15" value="" style="endArrow=none;dashed=1;html=1;entryX=0.5;entryY=1;" parent="3fQte9pRHBFsXC9MxjXT-1" target="3fQte9pRHBFsXC9MxjXT-22" edge="1">
          <mxGeometry width="50" height="50" relative="1" as="geometry">
            <mxPoint x="624" y="282.5" as="sourcePoint" />
            <mxPoint x="872" y="220" as="targetPoint" />
          </mxGeometry>
        </mxCell>
        <mxCell id="3fQte9pRHBFsXC9MxjXT-17" value="«entity»&lt;br&gt;&lt;b&gt;OpenDiscoveryService&lt;/b&gt;" style="html=1;strokeColor=#d79b00;align=center;fillColor=#ffcd28;gradientColor=#ffa500;" parent="3fQte9pRHBFsXC9MxjXT-1" vertex="1">
          <mxGeometry x="798" y="367.5" width="184" height="50" as="geometry" />
        </mxCell>
        <mxCell id="3fQte9pRHBFsXC9MxjXT-22" value="" style="rounded=0;whiteSpace=wrap;html=1;strokeColor=#000000;gradientColor=#ffffff;align=center;" parent="3fQte9pRHBFsXC9MxjXT-1" vertex="1">
          <mxGeometry x="522" y="183" width="206" height="31" as="geometry" />
        </mxCell>
        <mxCell id="3fQte9pRHBFsXC9MxjXT-25" value="«relationship»&lt;br&gt;&lt;b&gt;DiscoveryInvocationReport&lt;/b&gt;" style="html=1;strokeColor=#d79b00;align=center;fillColor=#ffcd28;gradientColor=#ffa500;" parent="3fQte9pRHBFsXC9MxjXT-1" vertex="1">
          <mxGeometry x="480" y="446.5" width="206" height="53" as="geometry" />
        </mxCell>
        <mxCell id="3fQte9pRHBFsXC9MxjXT-26" value="" style="endArrow=none;dashed=1;html=1;" parent="3fQte9pRHBFsXC9MxjXT-1" target="3fQte9pRHBFsXC9MxjXT-25" edge="1">
          <mxGeometry width="50" height="50" relative="1" as="geometry">
            <mxPoint x="583" y="393.5" as="sourcePoint" />
            <mxPoint x="1109" y="524.5" as="targetPoint" />
          </mxGeometry>
        </mxCell>
        <mxCell id="3fQte9pRHBFsXC9MxjXT-27" value="*" style="text;html=1;strokeColor=none;fillColor=none;align=center;verticalAlign=middle;whiteSpace=wrap;rounded=0;" parent="3fQte9pRHBFsXC9MxjXT-1" vertex="1">
          <mxGeometry x="422" y="390.5" width="40" height="20" as="geometry" />
        </mxCell>
        <mxCell id="3fQte9pRHBFsXC9MxjXT-28" value="0..1" style="text;html=1;strokeColor=none;fillColor=none;align=center;verticalAlign=middle;whiteSpace=wrap;rounded=0;" parent="3fQte9pRHBFsXC9MxjXT-1" vertex="1">
          <mxGeometry x="758" y="261.5" width="40" height="20" as="geometry" />
        </mxCell>
        <mxCell id="3fQte9pRHBFsXC9MxjXT-29" value="*" style="text;html=1;strokeColor=none;fillColor=none;align=center;verticalAlign=middle;whiteSpace=wrap;rounded=0;" parent="3fQte9pRHBFsXC9MxjXT-1" vertex="1">
          <mxGeometry x="422" y="281.5" width="40" height="20" as="geometry" />
        </mxCell>
        <mxCell id="3fQte9pRHBFsXC9MxjXT-30" value="0..1" style="text;html=1;strokeColor=none;fillColor=none;align=center;verticalAlign=middle;whiteSpace=wrap;rounded=0;" parent="3fQte9pRHBFsXC9MxjXT-1" vertex="1">
          <mxGeometry x="751" y="366" width="40" height="20" as="geometry" />
        </mxCell>
        <mxCell id="3fQte9pRHBFsXC9MxjXT-32" value="sourceDiscoveryEngine" style="text;html=1;strokeColor=none;fillColor=none;align=center;verticalAlign=middle;whiteSpace=wrap;rounded=0;" parent="3fQte9pRHBFsXC9MxjXT-1" vertex="1">
          <mxGeometry x="636" y="285.5" width="163" height="20" as="geometry" />
        </mxCell>
        <mxCell id="3fQte9pRHBFsXC9MxjXT-33" value="" style="rounded=0;whiteSpace=wrap;html=1;strokeColor=#000000;gradientColor=#ffffff;align=center;" parent="3fQte9pRHBFsXC9MxjXT-1" vertex="1">
          <mxGeometry x="480" y="499.5" width="206" height="31" as="geometry" />
        </mxCell>
        <mxCell id="3fQte9pRHBFsXC9MxjXT-34" value="serviceDiscoveryAnalysisReports" style="text;html=1;strokeColor=none;fillColor=none;align=center;verticalAlign=middle;whiteSpace=wrap;rounded=0;" parent="3fQte9pRHBFsXC9MxjXT-1" vertex="1">
          <mxGeometry x="426" y="365" width="206" height="20" as="geometry" />
        </mxCell>
        <mxCell id="3fQte9pRHBFsXC9MxjXT-35" value="sourceDiscoveryService" style="text;html=1;strokeColor=none;fillColor=none;align=center;verticalAlign=middle;whiteSpace=wrap;rounded=0;" parent="3fQte9pRHBFsXC9MxjXT-1" vertex="1">
          <mxGeometry x="625" y="391.5" width="174" height="20" as="geometry" />
        </mxCell>
        <mxCell id="3fQte9pRHBFsXC9MxjXT-36" value="" style="endArrow=none;html=1;entryX=0;entryY=0.5;startArrow=oval;startFill=1;" parent="3fQte9pRHBFsXC9MxjXT-1" target="3fQte9pRHBFsXC9MxjXT-17" edge="1">
          <mxGeometry width="50" height="50" relative="1" as="geometry">
            <mxPoint x="431" y="392.5" as="sourcePoint" />
            <mxPoint x="727" y="143" as="targetPoint" />
          </mxGeometry>
        </mxCell>
        <mxCell id="3fQte9pRHBFsXC9MxjXT-39" value="discoveryEngineAnalysisReports" style="text;html=1;strokeColor=none;fillColor=none;align=center;verticalAlign=middle;whiteSpace=wrap;rounded=0;" parent="3fQte9pRHBFsXC9MxjXT-1" vertex="1">
          <mxGeometry x="426" y="261.5" width="206" height="20" as="geometry" />
        </mxCell>
        <mxCell id="khFXJhSDqjQeGoekeJ10-0" value="«entity»&lt;br&gt;&lt;b&gt;Asset&lt;/b&gt;" style="html=1;strokeColor=#d6b656;align=center;fillColor=#fff2cc;gradientColor=#ffd966;" parent="3fQte9pRHBFsXC9MxjXT-1" vertex="1">
          <mxGeometry x="173" y="630" width="184" height="50" as="geometry" />
        </mxCell>
        <mxCell id="khFXJhSDqjQeGoekeJ10-1" value="«relationship»&lt;br&gt;&lt;b&gt;AssetDiscoveryReport&lt;/b&gt;" style="html=1;strokeColor=#d79b00;align=center;fillColor=#ffcd28;gradientColor=#ffa500;" parent="3fQte9pRHBFsXC9MxjXT-1" vertex="1">
          <mxGeometry x="480" y="549.5" width="206" height="53" as="geometry" />
        </mxCell>
        <mxCell id="khFXJhSDqjQeGoekeJ10-2" value="" style="endArrow=none;dashed=1;html=1;" parent="3fQte9pRHBFsXC9MxjXT-1" target="khFXJhSDqjQeGoekeJ10-1" edge="1">
          <mxGeometry width="50" height="50" relative="1" as="geometry">
            <mxPoint x="266" y="576.5" as="sourcePoint" />
            <mxPoint x="984" y="708" as="targetPoint" />
          </mxGeometry>
        </mxCell>
        <mxCell id="khFXJhSDqjQeGoekeJ10-3" value="*" style="text;html=1;strokeColor=none;fillColor=none;align=center;verticalAlign=middle;whiteSpace=wrap;rounded=0;" parent="3fQte9pRHBFsXC9MxjXT-1" vertex="1">
          <mxGeometry x="225" y="416.5" width="40" height="20" as="geometry" />
        </mxCell>
        <mxCell id="khFXJhSDqjQeGoekeJ10-4" value="0..1" style="text;html=1;strokeColor=none;fillColor=none;align=center;verticalAlign=middle;whiteSpace=wrap;rounded=0;" parent="3fQte9pRHBFsXC9MxjXT-1" vertex="1">
          <mxGeometry x="267.5" y="610" width="40" height="20" as="geometry" />
        </mxCell>
        <mxCell id="khFXJhSDqjQeGoekeJ10-5" value="" style="rounded=0;whiteSpace=wrap;html=1;strokeColor=#000000;gradientColor=#ffffff;align=center;" parent="3fQte9pRHBFsXC9MxjXT-1" vertex="1">
          <mxGeometry x="480" y="602.5" width="206" height="31" as="geometry" />
        </mxCell>
        <mxCell id="khFXJhSDqjQeGoekeJ10-6" value="assetDiscoveryAnalysisReports" style="text;html=1;strokeColor=none;fillColor=none;align=center;verticalAlign=middle;whiteSpace=wrap;rounded=0;" parent="3fQte9pRHBFsXC9MxjXT-1" vertex="1">
          <mxGeometry x="272" y="416.5" width="176" height="20" as="geometry" />
        </mxCell>
        <mxCell id="khFXJhSDqjQeGoekeJ10-7" value="discoveryReportTarget" style="text;html=1;strokeColor=none;fillColor=none;align=center;verticalAlign=middle;whiteSpace=wrap;rounded=0;" parent="3fQte9pRHBFsXC9MxjXT-1" vertex="1">
          <mxGeometry x="116" y="607.5" width="147" height="20" as="geometry" />
        </mxCell>
        <mxCell id="khFXJhSDqjQeGoekeJ10-8" value="" style="endArrow=none;html=1;entryX=0.5;entryY=0;exitX=0.5;exitY=1;endFill=0;startArrow=oval;startFill=1;" parent="3fQte9pRHBFsXC9MxjXT-1" target="khFXJhSDqjQeGoekeJ10-0" edge="1">
          <mxGeometry width="50" height="50" relative="1" as="geometry">
            <mxPoint x="263" y="415.5" as="sourcePoint" />
            <mxPoint x="679" y="325" as="targetPoint" />
          </mxGeometry>
        </mxCell>
        <mxCell id="iGOhSuVCxT9hs5b3waeM-0" value="«enumeration»&lt;br&gt;&lt;b&gt;DiscoveryServiceRequestStatus&lt;/b&gt;" style="html=1;strokeColor=#d79b00;align=center;fillColor=#ffcd28;gradientColor=#ffa500;" parent="3fQte9pRHBFsXC9MxjXT-1" vertex="1">
          <mxGeometry x="775" y="502.5" width="223" height="53" as="geometry" />
        </mxCell>
        <mxCell id="iGOhSuVCxT9hs5b3waeM-1" value="WAITING = 0&lt;br&gt;ACTIVATING = 1&lt;br&gt;IN_PROGRESS = 2&lt;br&gt;FAILED = 3&lt;br&gt;COMPLETED = 4&lt;br&gt;OTHER = 5&lt;br&gt;UNKNOWN = 99" style="rounded=0;whiteSpace=wrap;html=1;strokeColor=#000000;gradientColor=#ffffff;align=left;" parent="3fQte9pRHBFsXC9MxjXT-1" vertex="1">
          <mxGeometry x="775" y="555.5" width="223" height="115" as="geometry" />
        </mxCell>
      </root>
    </mxGraphModel>
  </diagram>
  <diagram name="0610-Annotations" id="B93cejBKThY-TTdXCMpq">
    <mxGraphModel dx="1106" dy="773" grid="0" gridSize="10" guides="1" tooltips="1" connect="1" arrows="1" fold="1" page="1" pageScale="1" pageWidth="1169" pageHeight="827" math="0" shadow="0">
      <root>
        <mxCell id="3fQte9pRHBFsXC9MxjXT-0" />
        <mxCell id="3fQte9pRHBFsXC9MxjXT-1" parent="3fQte9pRHBFsXC9MxjXT-0" />
        <mxCell id="3fQte9pRHBFsXC9MxjXT-2" value="" style="rounded=0;whiteSpace=wrap;html=1;align=left;fillColor=#f0a30a;strokeColor=#000000;fontColor=#ffffff;" parent="3fQte9pRHBFsXC9MxjXT-1" vertex="1">
          <mxGeometry x="20" y="20" width="60" height="20" as="geometry" />
        </mxCell>
        <mxCell id="3fQte9pRHBFsXC9MxjXT-3" value="0610 - Annotations" style="rounded=0;whiteSpace=wrap;html=1;align=left;verticalAlign=top;" parent="3fQte9pRHBFsXC9MxjXT-1" vertex="1">
          <mxGeometry x="20" y="40" width="1060" height="770" as="geometry" />
        </mxCell>
        <mxCell id="3fQte9pRHBFsXC9MxjXT-4" value="«entity»&lt;br&gt;&lt;b&gt;Annotation&lt;/b&gt;" style="html=1;strokeColor=#d79b00;align=center;fillColor=#ffcd28;gradientColor=#ffa500;" parent="3fQte9pRHBFsXC9MxjXT-1" vertex="1">
          <mxGeometry x="471" y="282" width="240" height="50" as="geometry" />
        </mxCell>
        <mxCell id="3fQte9pRHBFsXC9MxjXT-5" value="annotationType : string&lt;br&gt;summary : string&lt;br&gt;confidenceLevel : int&lt;br&gt;expression : string&lt;br&gt;explanation : string&lt;br&gt;analysisStep : string&lt;br&gt;jsonProperties : string&lt;br&gt;additionalProperties : map&amp;lt;string, string&amp;gt;" style="rounded=0;whiteSpace=wrap;html=1;strokeColor=#000000;gradientColor=#ffffff;align=left;" parent="3fQte9pRHBFsXC9MxjXT-1" vertex="1">
          <mxGeometry x="471" y="332" width="240" height="137" as="geometry" />
        </mxCell>
        <mxCell id="3fQte9pRHBFsXC9MxjXT-17" value="*" style="text;html=1;strokeColor=none;fillColor=none;align=center;verticalAlign=middle;whiteSpace=wrap;rounded=0;" parent="3fQte9pRHBFsXC9MxjXT-1" vertex="1">
          <mxGeometry x="431" y="287" width="40" height="20" as="geometry" />
        </mxCell>
        <mxCell id="3fQte9pRHBFsXC9MxjXT-20" value="0..1" style="text;html=1;strokeColor=none;fillColor=none;align=center;verticalAlign=middle;whiteSpace=wrap;rounded=0;" parent="3fQte9pRHBFsXC9MxjXT-1" vertex="1">
          <mxGeometry x="247" y="312" width="40" height="20" as="geometry" />
        </mxCell>
        <mxCell id="3fQte9pRHBFsXC9MxjXT-23" value="fromAnalysisReport" style="text;html=1;strokeColor=none;fillColor=none;align=center;verticalAlign=middle;whiteSpace=wrap;rounded=0;" parent="3fQte9pRHBFsXC9MxjXT-1" vertex="1">
          <mxGeometry x="247" y="287" width="124" height="20" as="geometry" />
        </mxCell>
        <mxCell id="3fQte9pRHBFsXC9MxjXT-24" value="reportedAnnotations" style="text;html=1;strokeColor=none;fillColor=none;align=center;verticalAlign=middle;whiteSpace=wrap;rounded=0;" parent="3fQte9pRHBFsXC9MxjXT-1" vertex="1">
          <mxGeometry x="343" y="312" width="128" height="20" as="geometry" />
        </mxCell>
        <mxCell id="3fQte9pRHBFsXC9MxjXT-27" value="«entity»&lt;br&gt;&lt;b&gt;OpenDiscoveryAnalysisReport&lt;/b&gt;" style="html=1;strokeColor=#d79b00;align=center;fillColor=#ffcd28;gradientColor=#ffa500;" parent="3fQte9pRHBFsXC9MxjXT-1" vertex="1">
          <mxGeometry x="32" y="282" width="215" height="50" as="geometry" />
        </mxCell>
        <mxCell id="3fQte9pRHBFsXC9MxjXT-8" value="«relationship»&lt;br&gt;&lt;b&gt;DiscoveredAnnotation&lt;/b&gt;" style="html=1;strokeColor=#d79b00;align=center;fillColor=#ffcd28;gradientColor=#ffa500;" parent="3fQte9pRHBFsXC9MxjXT-1" vertex="1">
          <mxGeometry x="240" y="507.5" width="206" height="50" as="geometry" />
        </mxCell>
        <mxCell id="3fQte9pRHBFsXC9MxjXT-9" value="" style="endArrow=none;dashed=1;html=1;entryX=0.5;entryY=0;" parent="3fQte9pRHBFsXC9MxjXT-1" target="3fQte9pRHBFsXC9MxjXT-8" edge="1">
          <mxGeometry width="50" height="50" relative="1" as="geometry">
            <mxPoint x="342" y="308" as="sourcePoint" />
            <mxPoint x="986" y="505" as="targetPoint" />
          </mxGeometry>
        </mxCell>
        <mxCell id="3fQte9pRHBFsXC9MxjXT-10" value="" style="rounded=0;whiteSpace=wrap;html=1;strokeColor=#000000;gradientColor=#ffffff;align=center;" parent="3fQte9pRHBFsXC9MxjXT-1" vertex="1">
          <mxGeometry x="240" y="557.5" width="206" height="31" as="geometry" />
        </mxCell>
        <mxCell id="3fQte9pRHBFsXC9MxjXT-13" value="" style="endArrow=none;html=1;entryX=1;entryY=0.5;exitX=1;exitY=0.75;startArrow=oval;startFill=1;rounded=0;" parent="3fQte9pRHBFsXC9MxjXT-1" source="3fQte9pRHBFsXC9MxjXT-5" target="3fQte9pRHBFsXC9MxjXT-4" edge="1">
          <mxGeometry width="50" height="50" relative="1" as="geometry">
            <mxPoint x="13" y="898" as="sourcePoint" />
            <mxPoint x="63" y="848" as="targetPoint" />
            <Array as="points">
              <mxPoint x="741" y="435" />
              <mxPoint x="741" y="307" />
            </Array>
          </mxGeometry>
        </mxCell>
        <mxCell id="3fQte9pRHBFsXC9MxjXT-28" value="extendedAnnotations" style="text;html=1;strokeColor=none;fillColor=none;align=center;verticalAlign=middle;whiteSpace=wrap;rounded=0;" parent="3fQte9pRHBFsXC9MxjXT-1" vertex="1">
          <mxGeometry x="711" y="287" width="123" height="20" as="geometry" />
        </mxCell>
        <mxCell id="3fQte9pRHBFsXC9MxjXT-30" value="*" style="text;html=1;strokeColor=none;fillColor=none;align=center;verticalAlign=middle;whiteSpace=wrap;rounded=0;" parent="3fQte9pRHBFsXC9MxjXT-1" vertex="1">
          <mxGeometry x="704" y="312" width="40" height="20" as="geometry" />
        </mxCell>
        <mxCell id="3fQte9pRHBFsXC9MxjXT-31" value="*" style="text;html=1;strokeColor=none;fillColor=none;align=center;verticalAlign=middle;whiteSpace=wrap;rounded=0;" parent="3fQte9pRHBFsXC9MxjXT-1" vertex="1">
          <mxGeometry x="704" y="422" width="40" height="20" as="geometry" />
        </mxCell>
        <mxCell id="3fQte9pRHBFsXC9MxjXT-32" value="«relationship»&lt;br&gt;&lt;b&gt;AnnotationExtension&lt;/b&gt;" style="html=1;strokeColor=#d79b00;align=center;fillColor=#ffcd28;gradientColor=#ffa500;" parent="3fQte9pRHBFsXC9MxjXT-1" vertex="1">
          <mxGeometry x="839" y="341.5" width="206" height="50" as="geometry" />
        </mxCell>
        <mxCell id="3fQte9pRHBFsXC9MxjXT-33" value="" style="endArrow=none;dashed=1;html=1;entryX=0;entryY=0.5;" parent="3fQte9pRHBFsXC9MxjXT-1" target="3fQte9pRHBFsXC9MxjXT-32" edge="1">
          <mxGeometry width="50" height="50" relative="1" as="geometry">
            <mxPoint x="743" y="367" as="sourcePoint" />
            <mxPoint x="1633" y="339" as="targetPoint" />
          </mxGeometry>
        </mxCell>
        <mxCell id="3fQte9pRHBFsXC9MxjXT-34" value="" style="rounded=0;whiteSpace=wrap;html=1;strokeColor=#000000;gradientColor=#ffffff;align=center;" parent="3fQte9pRHBFsXC9MxjXT-1" vertex="1">
          <mxGeometry x="839" y="391.5" width="206" height="31" as="geometry" />
        </mxCell>
        <mxCell id="khFXJhSDqjQeGoekeJ10-0" value="annotationExtensions" style="text;html=1;strokeColor=none;fillColor=none;align=center;verticalAlign=middle;whiteSpace=wrap;rounded=0;" parent="3fQte9pRHBFsXC9MxjXT-1" vertex="1">
          <mxGeometry x="711" y="446.5" width="123" height="20" as="geometry" />
        </mxCell>
        <mxCell id="rONUnObFOf8PwcdJrpwX-0" style="edgeStyle=orthogonalEdgeStyle;rounded=0;orthogonalLoop=1;jettySize=auto;html=1;endArrow=block;endFill=0;endSize=16;" parent="3fQte9pRHBFsXC9MxjXT-1" source="3fQte9pRHBFsXC9MxjXT-4" target="rONUnObFOf8PwcdJrpwX-1" edge="1">
          <mxGeometry relative="1" as="geometry">
            <mxPoint x="701" y="273" as="sourcePoint" />
          </mxGeometry>
        </mxCell>
        <mxCell id="rONUnObFOf8PwcdJrpwX-1" value="«entity»&lt;br&gt;&lt;b&gt;OpenMetadataRoot&lt;/b&gt;" style="html=1;strokeColor=#d6b656;align=center;fillColor=#fff2cc;gradientColor=#ffd966;" parent="3fQte9pRHBFsXC9MxjXT-1" vertex="1">
          <mxGeometry x="471" y="177" width="240" height="50" as="geometry" />
        </mxCell>
        <mxCell id="3fQte9pRHBFsXC9MxjXT-25" value="" style="endArrow=oval;html=1;entryX=1;entryY=0.5;exitX=0;exitY=0.5;endFill=1;" parent="3fQte9pRHBFsXC9MxjXT-1" source="3fQte9pRHBFsXC9MxjXT-4" target="3fQte9pRHBFsXC9MxjXT-27" edge="1">
          <mxGeometry width="50" height="50" relative="1" as="geometry">
            <mxPoint x="1033" y="263.5" as="sourcePoint" />
            <mxPoint x="1033" y="126.5" as="targetPoint" />
          </mxGeometry>
        </mxCell>
      </root>
    </mxGraphModel>
  </diagram>
  <diagram name="0612-Annotation-Reviews" id="3_5sg-Z3IrCquTYNV99S">
    <mxGraphModel dx="1106" dy="773" grid="0" gridSize="10" guides="1" tooltips="1" connect="1" arrows="1" fold="1" page="1" pageScale="1" pageWidth="1169" pageHeight="827" math="0" shadow="0">
      <root>
        <mxCell id="3fQte9pRHBFsXC9MxjXT-0" />
        <mxCell id="3fQte9pRHBFsXC9MxjXT-1" parent="3fQte9pRHBFsXC9MxjXT-0" />
        <mxCell id="3fQte9pRHBFsXC9MxjXT-2" value="" style="rounded=0;whiteSpace=wrap;html=1;align=left;fillColor=#f0a30a;strokeColor=#000000;fontColor=#ffffff;" parent="3fQte9pRHBFsXC9MxjXT-1" vertex="1">
          <mxGeometry x="20" y="20" width="60" height="20" as="geometry" />
        </mxCell>
        <mxCell id="3fQte9pRHBFsXC9MxjXT-3" value="0612 - Annotation Reviews" style="rounded=0;whiteSpace=wrap;html=1;align=left;verticalAlign=top;" parent="3fQte9pRHBFsXC9MxjXT-1" vertex="1">
          <mxGeometry x="20" y="40" width="1060" height="770" as="geometry" />
        </mxCell>
        <mxCell id="X9jNspjHYnvltATcbpwj-1" style="edgeStyle=orthogonalEdgeStyle;rounded=0;orthogonalLoop=1;jettySize=auto;html=1;endArrow=block;endFill=0;endSize=16;" parent="3fQte9pRHBFsXC9MxjXT-1" source="3fQte9pRHBFsXC9MxjXT-4" target="G6TMj7-85YhIdep7EZEb-1" edge="1">
          <mxGeometry relative="1" as="geometry" />
        </mxCell>
        <mxCell id="3fQte9pRHBFsXC9MxjXT-4" value="«entity»&lt;br&gt;&lt;b&gt;AnnotationReview&lt;/b&gt;" style="html=1;strokeColor=#d79b00;align=center;fillColor=#ffcd28;gradientColor=#ffa500;" parent="3fQte9pRHBFsXC9MxjXT-1" vertex="1">
          <mxGeometry x="646" y="294" width="240" height="50" as="geometry" />
        </mxCell>
        <mxCell id="3fQte9pRHBFsXC9MxjXT-5" value="reviewDate : date&lt;br&gt;steward : string&lt;br&gt;comment : string&lt;br&gt;" style="rounded=0;whiteSpace=wrap;html=1;strokeColor=#000000;gradientColor=#ffffff;align=left;" parent="3fQte9pRHBFsXC9MxjXT-1" vertex="1">
          <mxGeometry x="646" y="344" width="240" height="59" as="geometry" />
        </mxCell>
        <mxCell id="3fQte9pRHBFsXC9MxjXT-6" value="" style="edgeStyle=orthogonalEdgeStyle;rounded=0;html=1;endArrow=oval;endFill=1;jettySize=auto;orthogonalLoop=1;entryX=0;entryY=0.75;entryDx=0;entryDy=0;" parent="3fQte9pRHBFsXC9MxjXT-1" source="3fQte9pRHBFsXC9MxjXT-7" target="3fQte9pRHBFsXC9MxjXT-4" edge="1">
          <mxGeometry relative="1" as="geometry" />
        </mxCell>
        <mxCell id="3fQte9pRHBFsXC9MxjXT-7" value="«entity»&lt;br&gt;&lt;b&gt;Annotation&lt;/b&gt;" style="html=1;strokeColor=#d79b00;align=center;fillColor=#ffcd28;gradientColor=#ffa500;" parent="3fQte9pRHBFsXC9MxjXT-1" vertex="1">
          <mxGeometry x="167" y="307" width="160" height="50" as="geometry" />
        </mxCell>
        <mxCell id="3fQte9pRHBFsXC9MxjXT-8" value="«relationship»&lt;br&gt;&lt;b&gt;AnnotationReviewLink&lt;/b&gt;" style="html=1;strokeColor=#d79b00;align=center;fillColor=#ffcd28;gradientColor=#ffa500;" parent="3fQte9pRHBFsXC9MxjXT-1" vertex="1">
          <mxGeometry x="396" y="422" width="214" height="50" as="geometry" />
        </mxCell>
        <mxCell id="3fQte9pRHBFsXC9MxjXT-9" value="" style="endArrow=none;dashed=1;html=1;entryX=0.5;entryY=0;entryDx=0;entryDy=0;" parent="3fQte9pRHBFsXC9MxjXT-1" target="3fQte9pRHBFsXC9MxjXT-8" edge="1">
          <mxGeometry width="50" height="50" relative="1" as="geometry">
            <mxPoint x="503" y="332" as="sourcePoint" />
            <mxPoint x="1189.5" y="471" as="targetPoint" />
          </mxGeometry>
        </mxCell>
        <mxCell id="3fQte9pRHBFsXC9MxjXT-10" value="annotationStatus : AnnotationStatus" style="rounded=0;whiteSpace=wrap;html=1;strokeColor=#000000;gradientColor=#ffffff;align=center;" parent="3fQte9pRHBFsXC9MxjXT-1" vertex="1">
          <mxGeometry x="397" y="472" width="213" height="31" as="geometry" />
        </mxCell>
        <mxCell id="3fQte9pRHBFsXC9MxjXT-13" value="*" style="text;html=1;strokeColor=none;fillColor=none;align=center;verticalAlign=middle;whiteSpace=wrap;rounded=0;" parent="3fQte9pRHBFsXC9MxjXT-1" vertex="1">
          <mxGeometry x="327" y="334" width="40" height="20" as="geometry" />
        </mxCell>
        <mxCell id="3fQte9pRHBFsXC9MxjXT-14" value="*" style="text;html=1;strokeColor=none;fillColor=none;align=center;verticalAlign=middle;whiteSpace=wrap;rounded=0;" parent="3fQte9pRHBFsXC9MxjXT-1" vertex="1">
          <mxGeometry x="601.5" y="305" width="40" height="20" as="geometry" />
        </mxCell>
        <mxCell id="3fQte9pRHBFsXC9MxjXT-16" value="reviewedAnnotations" style="text;html=1;strokeColor=none;fillColor=none;align=center;verticalAlign=middle;whiteSpace=wrap;rounded=0;" parent="3fQte9pRHBFsXC9MxjXT-1" vertex="1">
          <mxGeometry x="336" y="307" width="104" height="20" as="geometry" />
        </mxCell>
        <mxCell id="3fQte9pRHBFsXC9MxjXT-21" value="annotationReviews" style="text;html=1;strokeColor=none;fillColor=none;align=center;verticalAlign=middle;whiteSpace=wrap;rounded=0;" parent="3fQte9pRHBFsXC9MxjXT-1" vertex="1">
          <mxGeometry x="528" y="337" width="123" height="20" as="geometry" />
        </mxCell>
        <mxCell id="tRoHS6g_8oDaDwOuYEJ3-0" value="«enumeration»&lt;br&gt;&lt;b&gt;AnnotationStatus&lt;/b&gt;" style="html=1;strokeColor=#d79b00;align=center;fillColor=#ffcd28;gradientColor=#ffa500;" parent="3fQte9pRHBFsXC9MxjXT-1" vertex="1">
          <mxGeometry x="673" y="515" width="182" height="53" as="geometry" />
        </mxCell>
        <mxCell id="tRoHS6g_8oDaDwOuYEJ3-1" value="NEW = 0&lt;br&gt;REVIEWED = 1&lt;br&gt;APPROVED = 2&lt;br&gt;ACTIONED = 3&lt;br&gt;INVALID = 4&lt;br&gt;IGNORE = 5&lt;br&gt;OTHER = 99&lt;br&gt;" style="rounded=0;whiteSpace=wrap;html=1;strokeColor=#000000;gradientColor=#ffffff;align=left;" parent="3fQte9pRHBFsXC9MxjXT-1" vertex="1">
          <mxGeometry x="673" y="568" width="181" height="115" as="geometry" />
        </mxCell>
        <mxCell id="G6TMj7-85YhIdep7EZEb-1" value="«entity»&lt;br&gt;&lt;b&gt;OpenMetadataRoot&lt;/b&gt;" style="html=1;strokeColor=#d6b656;align=center;fillColor=#fff2cc;gradientColor=#ffd966;" parent="3fQte9pRHBFsXC9MxjXT-1" vertex="1">
          <mxGeometry x="646" y="157" width="240" height="50" as="geometry" />
        </mxCell>
      </root>
    </mxGraphModel>
  </diagram>
  <diagram name="0615-Schema-Extraction" id="qfLNVuc7-3Gx_nqUpI1-">
    <mxGraphModel dx="1434" dy="775" grid="0" gridSize="10" guides="1" tooltips="1" connect="1" arrows="1" fold="1" page="1" pageScale="1" pageWidth="1169" pageHeight="827" math="0" shadow="0">
      <root>
        <mxCell id="3fQte9pRHBFsXC9MxjXT-0" />
        <mxCell id="3fQte9pRHBFsXC9MxjXT-1" parent="3fQte9pRHBFsXC9MxjXT-0" />
        <mxCell id="3fQte9pRHBFsXC9MxjXT-2" value="" style="rounded=0;whiteSpace=wrap;html=1;align=left;fillColor=#f0a30a;strokeColor=#000000;fontColor=#ffffff;" parent="3fQte9pRHBFsXC9MxjXT-1" vertex="1">
          <mxGeometry x="20" y="20" width="60" height="20" as="geometry" />
        </mxCell>
        <mxCell id="3fQte9pRHBFsXC9MxjXT-3" value="0615 - Schema Extraction" style="rounded=0;whiteSpace=wrap;html=1;align=left;verticalAlign=top;" parent="3fQte9pRHBFsXC9MxjXT-1" vertex="1">
          <mxGeometry x="20" y="40" width="1060" height="770" as="geometry" />
        </mxCell>
        <mxCell id="3fQte9pRHBFsXC9MxjXT-4" value="«entity»&lt;br&gt;&lt;b&gt;SchemaAnalysisAnnotation&lt;/b&gt;" style="html=1;strokeColor=#d79b00;align=center;fillColor=#ffcd28;gradientColor=#ffa500;" parent="3fQte9pRHBFsXC9MxjXT-1" vertex="1">
          <mxGeometry x="73.75" y="237.5" width="186" height="50" as="geometry" />
        </mxCell>
        <mxCell id="3fQte9pRHBFsXC9MxjXT-5" value="schemaName : string&lt;br&gt;schemaType : string&lt;br&gt;" style="rounded=0;whiteSpace=wrap;html=1;strokeColor=#000000;gradientColor=#ffffff;align=left;" parent="3fQte9pRHBFsXC9MxjXT-1" vertex="1">
          <mxGeometry x="73.75" y="287.5" width="186" height="42" as="geometry" />
        </mxCell>
        <mxCell id="3fQte9pRHBFsXC9MxjXT-6" value="" style="edgeStyle=orthogonalEdgeStyle;rounded=0;html=1;endArrow=none;endFill=0;jettySize=auto;orthogonalLoop=1;" parent="3fQte9pRHBFsXC9MxjXT-1" source="3fQte9pRHBFsXC9MxjXT-7" target="3fQte9pRHBFsXC9MxjXT-4" edge="1">
          <mxGeometry relative="1" as="geometry" />
        </mxCell>
        <mxCell id="3fQte9pRHBFsXC9MxjXT-7" value="«entity»&lt;br&gt;&lt;b&gt;Annotation&lt;/b&gt;" style="html=1;strokeColor=#d79b00;align=center;fillColor=#ffcd28;gradientColor=#ffa500;" parent="3fQte9pRHBFsXC9MxjXT-1" vertex="1">
          <mxGeometry x="86.25" y="115" width="160" height="50" as="geometry" />
        </mxCell>
        <mxCell id="3fQte9pRHBFsXC9MxjXT-8" value="" style="triangle;whiteSpace=wrap;html=1;strokeColor=#000000;gradientColor=#ffffff;align=center;rotation=-90;" parent="3fQte9pRHBFsXC9MxjXT-1" vertex="1">
          <mxGeometry x="157.25" y="163" width="17" height="21" as="geometry" />
        </mxCell>
        <mxCell id="WCMh9Vru1gYvqiybcURJ-2" style="edgeStyle=orthogonalEdgeStyle;rounded=0;orthogonalLoop=1;jettySize=auto;html=1;endArrow=block;endFill=0;endSize=16;" parent="3fQte9pRHBFsXC9MxjXT-1" source="3fQte9pRHBFsXC9MxjXT-9" target="I1TaoiHqp5TiCEr__Maa-1" edge="1">
          <mxGeometry relative="1" as="geometry" />
        </mxCell>
        <mxCell id="3fQte9pRHBFsXC9MxjXT-9" value="«entity»&lt;br&gt;&lt;b&gt;DataField&lt;/b&gt;" style="html=1;strokeColor=#d79b00;align=center;fillColor=#ffcd28;gradientColor=#ffa500;" parent="3fQte9pRHBFsXC9MxjXT-1" vertex="1">
          <mxGeometry x="536.75" y="237" width="245" height="50" as="geometry" />
        </mxCell>
        <mxCell id="3fQte9pRHBFsXC9MxjXT-10" value="" style="endArrow=none;html=1;entryX=1;entryY=0.5;exitX=0;exitY=0.5;startArrow=oval;startFill=1;" parent="3fQte9pRHBFsXC9MxjXT-1" source="3fQte9pRHBFsXC9MxjXT-9" target="3fQte9pRHBFsXC9MxjXT-4" edge="1">
          <mxGeometry width="50" height="50" relative="1" as="geometry">
            <mxPoint x="335.25" y="735" as="sourcePoint" />
            <mxPoint x="385.25" y="685" as="targetPoint" />
          </mxGeometry>
        </mxCell>
        <mxCell id="3fQte9pRHBFsXC9MxjXT-11" value="«relationship»&lt;br&gt;&lt;b&gt;DiscoveredDataField&lt;/b&gt;" style="html=1;strokeColor=#d79b00;align=center;fillColor=#ffcd28;gradientColor=#ffa500;" parent="3fQte9pRHBFsXC9MxjXT-1" vertex="1">
          <mxGeometry x="325.25" y="119" width="169.5" height="50" as="geometry" />
        </mxCell>
        <mxCell id="3fQte9pRHBFsXC9MxjXT-12" value="" style="endArrow=none;dashed=1;html=1;entryX=0.5;entryY=1;" parent="3fQte9pRHBFsXC9MxjXT-1" target="3fQte9pRHBFsXC9MxjXT-14" edge="1">
          <mxGeometry width="50" height="50" relative="1" as="geometry">
            <mxPoint x="429.25" y="262.5" as="sourcePoint" />
            <mxPoint x="677.25" y="200" as="targetPoint" />
          </mxGeometry>
        </mxCell>
        <mxCell id="3fQte9pRHBFsXC9MxjXT-14" value="dataFieldPosition : int" style="rounded=0;whiteSpace=wrap;html=1;strokeColor=#000000;gradientColor=#ffffff;align=left;" parent="3fQte9pRHBFsXC9MxjXT-1" vertex="1">
          <mxGeometry x="325.25" y="169" width="169.5" height="31" as="geometry" />
        </mxCell>
        <mxCell id="3fQte9pRHBFsXC9MxjXT-15" value="«relationship»&lt;br&gt;&lt;b&gt;DiscoveredNestedDataField&lt;/b&gt;" style="html=1;strokeColor=#d79b00;align=center;fillColor=#ffcd28;gradientColor=#ffa500;" parent="3fQte9pRHBFsXC9MxjXT-1" vertex="1">
          <mxGeometry x="856.25" y="266" width="206" height="53" as="geometry" />
        </mxCell>
        <mxCell id="3fQte9pRHBFsXC9MxjXT-16" value="" style="endArrow=none;dashed=1;html=1;" parent="3fQte9pRHBFsXC9MxjXT-1" target="3fQte9pRHBFsXC9MxjXT-15" edge="1">
          <mxGeometry width="50" height="50" relative="1" as="geometry">
            <mxPoint x="802.75" y="294" as="sourcePoint" />
            <mxPoint x="885.25" y="488" as="targetPoint" />
          </mxGeometry>
        </mxCell>
        <mxCell id="3fQte9pRHBFsXC9MxjXT-17" value="*" style="text;html=1;strokeColor=none;fillColor=none;align=center;verticalAlign=middle;whiteSpace=wrap;rounded=0;" parent="3fQte9pRHBFsXC9MxjXT-1" vertex="1">
          <mxGeometry x="779.25" y="498.75" width="26" height="18" as="geometry" />
        </mxCell>
        <mxCell id="3fQte9pRHBFsXC9MxjXT-18" value="*" style="text;html=1;strokeColor=none;fillColor=none;align=center;verticalAlign=middle;whiteSpace=wrap;rounded=0;" parent="3fQte9pRHBFsXC9MxjXT-1" vertex="1">
          <mxGeometry x="506.25" y="241.5" width="40" height="20" as="geometry" />
        </mxCell>
        <mxCell id="3fQte9pRHBFsXC9MxjXT-19" value="0..1" style="text;html=1;strokeColor=none;fillColor=none;align=center;verticalAlign=middle;whiteSpace=wrap;rounded=0;" parent="3fQte9pRHBFsXC9MxjXT-1" vertex="1">
          <mxGeometry x="257.25" y="261.5" width="40" height="20" as="geometry" />
        </mxCell>
        <mxCell id="3fQte9pRHBFsXC9MxjXT-20" value="0..1" style="text;html=1;strokeColor=none;fillColor=none;align=center;verticalAlign=middle;whiteSpace=wrap;rounded=0;" parent="3fQte9pRHBFsXC9MxjXT-1" vertex="1">
          <mxGeometry x="775.25" y="225.5" width="40" height="20" as="geometry" />
        </mxCell>
        <mxCell id="3fQte9pRHBFsXC9MxjXT-21" value="discoveredDataFields" style="text;html=1;strokeColor=none;fillColor=none;align=center;verticalAlign=middle;whiteSpace=wrap;rounded=0;" parent="3fQte9pRHBFsXC9MxjXT-1" vertex="1">
          <mxGeometry x="413.25" y="263.5" width="122" height="20" as="geometry" />
        </mxCell>
        <mxCell id="3fQte9pRHBFsXC9MxjXT-22" value="&lt;div style=&quot;text-align: left&quot;&gt;&lt;span&gt;dataFieldPosition : int&lt;/span&gt;&lt;/div&gt;" style="rounded=0;whiteSpace=wrap;html=1;strokeColor=#000000;gradientColor=#ffffff;align=left;" parent="3fQte9pRHBFsXC9MxjXT-1" vertex="1">
          <mxGeometry x="856.25" y="319" width="206" height="31" as="geometry" />
        </mxCell>
        <mxCell id="3fQte9pRHBFsXC9MxjXT-23" value="nestedDataFields" style="text;html=1;strokeColor=none;fillColor=none;align=center;verticalAlign=middle;whiteSpace=wrap;rounded=0;" parent="3fQte9pRHBFsXC9MxjXT-1" vertex="1">
          <mxGeometry x="805.25" y="475.25" width="110" height="20" as="geometry" />
        </mxCell>
        <mxCell id="3fQte9pRHBFsXC9MxjXT-24" value="parentDataField" style="text;html=1;strokeColor=none;fillColor=none;align=center;verticalAlign=middle;whiteSpace=wrap;rounded=0;" parent="3fQte9pRHBFsXC9MxjXT-1" vertex="1">
          <mxGeometry x="768.25" y="208" width="112" height="20" as="geometry" />
        </mxCell>
        <mxCell id="3fQte9pRHBFsXC9MxjXT-26" value="schemaAnalysisAnnotation" style="text;html=1;strokeColor=none;fillColor=none;align=center;verticalAlign=middle;whiteSpace=wrap;rounded=0;" parent="3fQte9pRHBFsXC9MxjXT-1" vertex="1">
          <mxGeometry x="272.75" y="239.5" width="135" height="20" as="geometry" />
        </mxCell>
        <mxCell id="3fQte9pRHBFsXC9MxjXT-27" value="dataFieldName : string&lt;br&gt;dataFieldType : string&lt;br&gt;dataFieldDescription : string&lt;br&gt;dataFieldNamespace : string&lt;br&gt;dataFieldAliases : array&amp;lt;string&amp;gt;&lt;br&gt;dataFieldSortOrder : DataItemSortOrder&lt;br&gt;minCardinality : int&lt;br&gt;maxCardinality : int&lt;br&gt;isNullable : int&lt;br&gt;minimumLength : int&lt;br&gt;length : int&lt;br&gt;precision : int&lt;br&gt;significantDigits : int&lt;br&gt;defaultValue : string&lt;br&gt;isDeprecated : boolean&lt;br&gt;version : long&lt;br&gt;versionIdentifier : string&lt;br&gt;additionalProperties : map&amp;lt;string, string&amp;gt;" style="rounded=0;whiteSpace=wrap;html=1;strokeColor=#000000;gradientColor=#ffffff;align=left;" parent="3fQte9pRHBFsXC9MxjXT-1" vertex="1">
          <mxGeometry x="536.75" y="286.5" width="245" height="278.5" as="geometry" />
        </mxCell>
        <mxCell id="3fQte9pRHBFsXC9MxjXT-31" value="«entity»&lt;br&gt;&lt;b&gt;SchemaAttribute&lt;/b&gt;" style="html=1;strokeColor=#996185;align=center;fillColor=#e6d0de;gradientColor=#d5739d;" parent="3fQte9pRHBFsXC9MxjXT-1" vertex="1">
          <mxGeometry x="579.5" y="729" width="160" height="50" as="geometry" />
        </mxCell>
        <mxCell id="3fQte9pRHBFsXC9MxjXT-33" value="schemaAttributeDefinition" style="text;html=1;strokeColor=none;fillColor=none;align=center;verticalAlign=middle;whiteSpace=wrap;rounded=0;" parent="3fQte9pRHBFsXC9MxjXT-1" vertex="1">
          <mxGeometry x="672.5" y="705" width="126" height="20" as="geometry" />
        </mxCell>
        <mxCell id="3fQte9pRHBFsXC9MxjXT-34" value="*" style="text;html=1;strokeColor=none;fillColor=none;align=center;verticalAlign=middle;whiteSpace=wrap;rounded=0;" parent="3fQte9pRHBFsXC9MxjXT-1" vertex="1">
          <mxGeometry x="663.25" y="573" width="26" height="18" as="geometry" />
        </mxCell>
        <mxCell id="3fQte9pRHBFsXC9MxjXT-36" value="0..1" style="text;html=1;strokeColor=none;fillColor=none;align=center;verticalAlign=middle;whiteSpace=wrap;rounded=0;" parent="3fQte9pRHBFsXC9MxjXT-1" vertex="1">
          <mxGeometry x="616.5" y="705" width="40" height="20" as="geometry" />
        </mxCell>
        <mxCell id="3fQte9pRHBFsXC9MxjXT-37" value="«relationship»&lt;br&gt;&lt;b&gt;SchemaAttributeDefinition&lt;/b&gt;" style="html=1;strokeColor=#d79b00;align=center;fillColor=#ffcd28;gradientColor=#ffa500;" parent="3fQte9pRHBFsXC9MxjXT-1" vertex="1">
          <mxGeometry x="825" y="602" width="206" height="53" as="geometry" />
        </mxCell>
        <mxCell id="3fQte9pRHBFsXC9MxjXT-38" value="" style="endArrow=none;dashed=1;html=1;" parent="3fQte9pRHBFsXC9MxjXT-1" target="3fQte9pRHBFsXC9MxjXT-37" edge="1">
          <mxGeometry width="50" height="50" relative="1" as="geometry">
            <mxPoint x="661.5" y="629" as="sourcePoint" />
            <mxPoint x="854" y="836" as="targetPoint" />
          </mxGeometry>
        </mxCell>
        <mxCell id="3fQte9pRHBFsXC9MxjXT-39" value="assetGUID : string" style="rounded=0;whiteSpace=wrap;html=1;strokeColor=#000000;gradientColor=#ffffff;align=left;" parent="3fQte9pRHBFsXC9MxjXT-1" vertex="1">
          <mxGeometry x="825" y="655" width="206" height="31" as="geometry" />
        </mxCell>
        <mxCell id="3fQte9pRHBFsXC9MxjXT-40" value="deployedSchemaAttributes" style="text;html=1;strokeColor=none;fillColor=none;align=center;verticalAlign=middle;whiteSpace=wrap;rounded=0;" parent="3fQte9pRHBFsXC9MxjXT-1" vertex="1">
          <mxGeometry x="663.25" y="585" width="152" height="20" as="geometry" />
        </mxCell>
        <mxCell id="3fQte9pRHBFsXC9MxjXT-28" value="«entity»&lt;br&gt;&lt;b&gt;SchemaType&lt;/b&gt;" style="html=1;strokeColor=#996185;align=center;fillColor=#e6d0de;gradientColor=#d5739d;" parent="3fQte9pRHBFsXC9MxjXT-1" vertex="1">
          <mxGeometry x="86.25" y="471" width="160" height="50" as="geometry" />
        </mxCell>
        <mxCell id="3fQte9pRHBFsXC9MxjXT-29" value="schemaTypeDefinition" style="text;html=1;strokeColor=none;fillColor=none;align=center;verticalAlign=middle;whiteSpace=wrap;rounded=0;" parent="3fQte9pRHBFsXC9MxjXT-1" vertex="1">
          <mxGeometry x="41.75" y="446.5" width="122" height="20" as="geometry" />
        </mxCell>
        <mxCell id="3fQte9pRHBFsXC9MxjXT-30" value="*" style="text;html=1;strokeColor=none;fillColor=none;align=center;verticalAlign=middle;whiteSpace=wrap;rounded=0;" parent="3fQte9pRHBFsXC9MxjXT-1" vertex="1">
          <mxGeometry x="169.75" y="334" width="26" height="18" as="geometry" />
        </mxCell>
        <mxCell id="3fQte9pRHBFsXC9MxjXT-35" value="0..1" style="text;html=1;strokeColor=none;fillColor=none;align=center;verticalAlign=middle;whiteSpace=wrap;rounded=0;" parent="3fQte9pRHBFsXC9MxjXT-1" vertex="1">
          <mxGeometry x="166.75" y="449" width="40" height="20" as="geometry" />
        </mxCell>
        <mxCell id="3fQte9pRHBFsXC9MxjXT-41" value="«relationship»&lt;br&gt;&lt;b&gt;SchemaTypeDefinition&lt;/b&gt;" style="html=1;strokeColor=#d79b00;align=center;fillColor=#ffcd28;gradientColor=#ffa500;" parent="3fQte9pRHBFsXC9MxjXT-1" vertex="1">
          <mxGeometry x="221.25" y="351.5" width="196.5" height="53" as="geometry" />
        </mxCell>
        <mxCell id="3fQte9pRHBFsXC9MxjXT-42" value="" style="endArrow=none;dashed=1;html=1;" parent="3fQte9pRHBFsXC9MxjXT-1" target="3fQte9pRHBFsXC9MxjXT-41" edge="1">
          <mxGeometry width="50" height="50" relative="1" as="geometry">
            <mxPoint x="165.75" y="378.5" as="sourcePoint" />
            <mxPoint x="358.25" y="717.5" as="targetPoint" />
          </mxGeometry>
        </mxCell>
        <mxCell id="3fQte9pRHBFsXC9MxjXT-43" value="" style="rounded=0;whiteSpace=wrap;html=1;strokeColor=#000000;gradientColor=#ffffff;align=left;" parent="3fQte9pRHBFsXC9MxjXT-1" vertex="1">
          <mxGeometry x="221.25" y="403.5" width="195.5" height="31" as="geometry" />
        </mxCell>
        <mxCell id="3fQte9pRHBFsXC9MxjXT-44" value="deployedSchemaTypes" style="text;html=1;strokeColor=none;fillColor=none;align=center;verticalAlign=middle;whiteSpace=wrap;rounded=0;" parent="3fQte9pRHBFsXC9MxjXT-1" vertex="1">
          <mxGeometry x="37.75" y="333.5" width="126" height="20" as="geometry" />
        </mxCell>
        <mxCell id="I1TaoiHqp5TiCEr__Maa-1" value="«entity»&lt;br&gt;&lt;b&gt;OpenMetadataRoot&lt;/b&gt;" style="html=1;strokeColor=#d6b656;align=center;fillColor=#fff2cc;gradientColor=#ffd966;" parent="3fQte9pRHBFsXC9MxjXT-1" vertex="1">
          <mxGeometry x="539.25" y="115" width="240" height="50" as="geometry" />
        </mxCell>
        <mxCell id="3fQte9pRHBFsXC9MxjXT-32" style="edgeStyle=orthogonalEdgeStyle;rounded=0;html=1;entryX=0.5;entryY=1;endArrow=none;endFill=0;jettySize=auto;orthogonalLoop=1;entryDx=0;entryDy=0;startArrow=oval;startFill=1;" parent="3fQte9pRHBFsXC9MxjXT-1" source="3fQte9pRHBFsXC9MxjXT-31" target="3fQte9pRHBFsXC9MxjXT-27" edge="1">
          <mxGeometry relative="1" as="geometry" />
        </mxCell>
        <mxCell id="3fQte9pRHBFsXC9MxjXT-13" style="edgeStyle=orthogonalEdgeStyle;rounded=0;html=1;entryX=0.5;entryY=1;endArrow=none;endFill=0;jettySize=auto;orthogonalLoop=1;startArrow=oval;startFill=1;" parent="3fQte9pRHBFsXC9MxjXT-1" source="3fQte9pRHBFsXC9MxjXT-28" target="3fQte9pRHBFsXC9MxjXT-5" edge="1">
          <mxGeometry relative="1" as="geometry">
            <mxPoint x="132.75" y="606" as="targetPoint" />
          </mxGeometry>
        </mxCell>
        <mxCell id="3fQte9pRHBFsXC9MxjXT-25" value="" style="endArrow=none;html=1;entryX=1;entryY=0.25;exitX=1;exitY=0.75;endFill=0;rounded=0;startArrow=oval;startFill=1;" parent="3fQte9pRHBFsXC9MxjXT-1" source="3fQte9pRHBFsXC9MxjXT-27" target="3fQte9pRHBFsXC9MxjXT-9" edge="1">
          <mxGeometry width="50" height="50" relative="1" as="geometry">
            <mxPoint x="528.25" y="242" as="sourcePoint" />
            <mxPoint x="528.25" y="105" as="targetPoint" />
            <Array as="points">
              <mxPoint x="803" y="495" />
              <mxPoint x="800.75" y="249" />
            </Array>
          </mxGeometry>
        </mxCell>
        <mxCell id="smTPGoUgBGWt_XyJX2Y1-0" style="edgeStyle=orthogonalEdgeStyle;rounded=0;orthogonalLoop=1;jettySize=auto;html=1;exitX=0;exitY=0.75;exitDx=0;exitDy=0;entryX=0.25;entryY=1;entryDx=0;entryDy=0;endArrow=oval;endFill=1;" parent="3fQte9pRHBFsXC9MxjXT-1" source="3fQte9pRHBFsXC9MxjXT-27" target="3fQte9pRHBFsXC9MxjXT-27" edge="1">
          <mxGeometry relative="1" as="geometry" />
        </mxCell>
        <mxCell id="smTPGoUgBGWt_XyJX2Y1-1" value="«relationship»&lt;br&gt;&lt;b&gt;DiscoveredLinkedDataField&lt;/b&gt;" style="html=1;strokeColor=#d79b00;align=center;fillColor=#ffcd28;gradientColor=#ffa500;" parent="3fQte9pRHBFsXC9MxjXT-1" vertex="1">
          <mxGeometry x="209" y="594" width="248" height="53" as="geometry" />
        </mxCell>
        <mxCell id="smTPGoUgBGWt_XyJX2Y1-2" value="" style="endArrow=none;dashed=1;html=1;" parent="3fQte9pRHBFsXC9MxjXT-1" target="smTPGoUgBGWt_XyJX2Y1-1" edge="1">
          <mxGeometry width="50" height="50" relative="1" as="geometry">
            <mxPoint x="533.75" y="433.5" as="sourcePoint" />
            <mxPoint x="379.25" y="717.5" as="targetPoint" />
          </mxGeometry>
        </mxCell>
        <mxCell id="smTPGoUgBGWt_XyJX2Y1-3" value="relationshipTypeName : string&lt;br&gt;relationshipEnd : int&lt;br&gt;additionalProperties : map&amp;lt;string, string&amp;gt;" style="rounded=0;whiteSpace=wrap;html=1;strokeColor=#000000;gradientColor=#ffffff;align=left;" parent="3fQte9pRHBFsXC9MxjXT-1" vertex="1">
          <mxGeometry x="209" y="647" width="248" height="63" as="geometry" />
        </mxCell>
        <mxCell id="smTPGoUgBGWt_XyJX2Y1-4" value="linkFromDataFields" style="text;html=1;align=center;verticalAlign=middle;resizable=0;points=[];autosize=1;strokeColor=none;fillColor=none;" parent="3fQte9pRHBFsXC9MxjXT-1" vertex="1">
          <mxGeometry x="422" y="469" width="121" height="26" as="geometry" />
        </mxCell>
        <mxCell id="smTPGoUgBGWt_XyJX2Y1-5" value="linkToDataFields" style="text;html=1;align=center;verticalAlign=middle;resizable=0;points=[];autosize=1;strokeColor=none;fillColor=none;" parent="3fQte9pRHBFsXC9MxjXT-1" vertex="1">
          <mxGeometry x="532.5" y="582" width="106" height="26" as="geometry" />
        </mxCell>
        <mxCell id="smTPGoUgBGWt_XyJX2Y1-6" value="*" style="text;html=1;align=center;verticalAlign=middle;resizable=0;points=[];autosize=1;strokeColor=none;fillColor=none;" parent="3fQte9pRHBFsXC9MxjXT-1" vertex="1">
          <mxGeometry x="603.75" y="412.5" width="23" height="26" as="geometry" />
        </mxCell>
        <mxCell id="smTPGoUgBGWt_XyJX2Y1-7" value="*" style="text;html=1;align=center;verticalAlign=middle;resizable=0;points=[];autosize=1;strokeColor=none;fillColor=none;" parent="3fQte9pRHBFsXC9MxjXT-1" vertex="1">
          <mxGeometry x="511.5" y="503" width="23" height="26" as="geometry" />
        </mxCell>
      </root>
    </mxGraphModel>
  </diagram>
  <diagram name="0617-Data-Field-Analysis" id="Vk1t311AT1pcD-bhjvOd">
    <mxGraphModel dx="1106" dy="773" grid="0" gridSize="10" guides="1" tooltips="1" connect="1" arrows="1" fold="1" page="1" pageScale="1" pageWidth="1169" pageHeight="827" math="0" shadow="0">
      <root>
        <mxCell id="3fQte9pRHBFsXC9MxjXT-0" />
        <mxCell id="3fQte9pRHBFsXC9MxjXT-1" parent="3fQte9pRHBFsXC9MxjXT-0" />
        <mxCell id="3fQte9pRHBFsXC9MxjXT-2" value="" style="rounded=0;whiteSpace=wrap;html=1;align=left;fillColor=#f0a30a;strokeColor=#000000;fontColor=#ffffff;" parent="3fQte9pRHBFsXC9MxjXT-1" vertex="1">
          <mxGeometry x="20" y="20" width="60" height="20" as="geometry" />
        </mxCell>
        <mxCell id="3fQte9pRHBFsXC9MxjXT-3" value="0617 - Data Field Analysis" style="rounded=0;whiteSpace=wrap;html=1;align=left;verticalAlign=top;" parent="3fQte9pRHBFsXC9MxjXT-1" vertex="1">
          <mxGeometry x="20" y="40" width="1060" height="770" as="geometry" />
        </mxCell>
        <mxCell id="3fQte9pRHBFsXC9MxjXT-4" value="«entity»&lt;br&gt;&lt;b&gt;DataFieldAnnotation&lt;/b&gt;" style="html=1;strokeColor=#d79b00;align=center;fillColor=#ffcd28;gradientColor=#ffa500;" parent="3fQte9pRHBFsXC9MxjXT-1" vertex="1">
          <mxGeometry x="721" y="272.5" width="166" height="50" as="geometry" />
        </mxCell>
        <mxCell id="3fQte9pRHBFsXC9MxjXT-5" value="" style="rounded=0;whiteSpace=wrap;html=1;strokeColor=#000000;gradientColor=#ffffff;align=left;" parent="3fQte9pRHBFsXC9MxjXT-1" vertex="1">
          <mxGeometry x="720.5" y="322.5" width="166" height="26.5" as="geometry" />
        </mxCell>
        <mxCell id="3fQte9pRHBFsXC9MxjXT-6" value="" style="edgeStyle=orthogonalEdgeStyle;rounded=0;html=1;endArrow=none;endFill=0;jettySize=auto;orthogonalLoop=1;" parent="3fQte9pRHBFsXC9MxjXT-1" source="3fQte9pRHBFsXC9MxjXT-7" target="3fQte9pRHBFsXC9MxjXT-4" edge="1">
          <mxGeometry relative="1" as="geometry" />
        </mxCell>
        <mxCell id="3fQte9pRHBFsXC9MxjXT-7" value="«entity»&lt;br&gt;&lt;b&gt;Annotation&lt;/b&gt;" style="html=1;strokeColor=#d79b00;align=center;fillColor=#ffcd28;gradientColor=#ffa500;" parent="3fQte9pRHBFsXC9MxjXT-1" vertex="1">
          <mxGeometry x="724" y="151" width="160" height="50" as="geometry" />
        </mxCell>
        <mxCell id="3fQte9pRHBFsXC9MxjXT-8" value="" style="triangle;whiteSpace=wrap;html=1;strokeColor=#000000;gradientColor=#ffffff;align=center;rotation=-90;" parent="3fQte9pRHBFsXC9MxjXT-1" vertex="1">
          <mxGeometry x="795" y="199" width="17" height="21" as="geometry" />
        </mxCell>
        <mxCell id="3fQte9pRHBFsXC9MxjXT-9" value="«entity»&lt;br&gt;&lt;b&gt;DataField&lt;/b&gt;" style="html=1;strokeColor=#d79b00;align=center;fillColor=#ffcd28;gradientColor=#ffa500;" parent="3fQte9pRHBFsXC9MxjXT-1" vertex="1">
          <mxGeometry x="172" y="270" width="162" height="50" as="geometry" />
        </mxCell>
        <mxCell id="3fQte9pRHBFsXC9MxjXT-10" value="" style="endArrow=none;html=1;exitX=1;exitY=0.5;exitDx=0;exitDy=0;entryX=0;entryY=0.5;entryDx=0;entryDy=0;startArrow=oval;startFill=1;" parent="3fQte9pRHBFsXC9MxjXT-1" source="3fQte9pRHBFsXC9MxjXT-9" target="3fQte9pRHBFsXC9MxjXT-4" edge="1">
          <mxGeometry width="50" height="50" relative="1" as="geometry">
            <mxPoint x="388.5" y="740.5" as="sourcePoint" />
            <mxPoint x="593" y="296" as="targetPoint" />
          </mxGeometry>
        </mxCell>
        <mxCell id="3fQte9pRHBFsXC9MxjXT-11" value="«relationship»&lt;br&gt;&lt;b&gt;DataFieldAnalysis&lt;/b&gt;" style="html=1;strokeColor=#d79b00;align=center;fillColor=#ffcd28;gradientColor=#ffa500;" parent="3fQte9pRHBFsXC9MxjXT-1" vertex="1">
          <mxGeometry x="384.5" y="146" width="206" height="50" as="geometry" />
        </mxCell>
        <mxCell id="3fQte9pRHBFsXC9MxjXT-12" value="" style="endArrow=none;dashed=1;html=1;entryX=0.5;entryY=1;" parent="3fQte9pRHBFsXC9MxjXT-1" target="3fQte9pRHBFsXC9MxjXT-13" edge="1">
          <mxGeometry width="50" height="50" relative="1" as="geometry">
            <mxPoint x="487.5" y="295.5" as="sourcePoint" />
            <mxPoint x="735.5" y="233" as="targetPoint" />
          </mxGeometry>
        </mxCell>
        <mxCell id="3fQte9pRHBFsXC9MxjXT-13" value="" style="rounded=0;whiteSpace=wrap;html=1;strokeColor=#000000;gradientColor=#ffffff;align=left;" parent="3fQte9pRHBFsXC9MxjXT-1" vertex="1">
          <mxGeometry x="384.5" y="196" width="206" height="31" as="geometry" />
        </mxCell>
        <mxCell id="3fQte9pRHBFsXC9MxjXT-17" value="*" style="text;html=1;strokeColor=none;fillColor=none;align=center;verticalAlign=middle;whiteSpace=wrap;rounded=0;" parent="3fQte9pRHBFsXC9MxjXT-1" vertex="1">
          <mxGeometry x="342" y="270.5" width="40" height="20" as="geometry" />
        </mxCell>
        <mxCell id="3fQte9pRHBFsXC9MxjXT-18" value="*" style="text;html=1;strokeColor=none;fillColor=none;align=center;verticalAlign=middle;whiteSpace=wrap;rounded=0;" parent="3fQte9pRHBFsXC9MxjXT-1" vertex="1">
          <mxGeometry x="681" y="297.5" width="40" height="20" as="geometry" />
        </mxCell>
        <mxCell id="3fQte9pRHBFsXC9MxjXT-48" value="dataFieldAnnotations" style="text;html=1;strokeColor=none;fillColor=none;align=center;verticalAlign=middle;whiteSpace=wrap;rounded=0;" parent="3fQte9pRHBFsXC9MxjXT-1" vertex="1">
          <mxGeometry x="585" y="272.5" width="130" height="20" as="geometry" />
        </mxCell>
        <mxCell id="3fQte9pRHBFsXC9MxjXT-50" value="annotatedDataFields" style="text;html=1;strokeColor=none;fillColor=none;align=center;verticalAlign=middle;whiteSpace=wrap;rounded=0;" parent="3fQte9pRHBFsXC9MxjXT-1" vertex="1">
          <mxGeometry x="338" y="295.5" width="129" height="20" as="geometry" />
        </mxCell>
      </root>
    </mxGraphModel>
  </diagram>
  <diagram name="0620-Data-Profiling" id="JT6iq98iTEs5zHDlyrKp">
    <mxGraphModel dx="1106" dy="773" grid="0" gridSize="10" guides="1" tooltips="1" connect="1" arrows="1" fold="1" page="1" pageScale="1" pageWidth="1169" pageHeight="827" math="0" shadow="0">
      <root>
        <mxCell id="3fQte9pRHBFsXC9MxjXT-0" />
        <mxCell id="3fQte9pRHBFsXC9MxjXT-1" parent="3fQte9pRHBFsXC9MxjXT-0" />
        <mxCell id="3fQte9pRHBFsXC9MxjXT-2" value="" style="rounded=0;whiteSpace=wrap;html=1;align=left;fillColor=#f0a30a;strokeColor=#000000;fontColor=#ffffff;" parent="3fQte9pRHBFsXC9MxjXT-1" vertex="1">
          <mxGeometry x="20" y="20" width="60" height="20" as="geometry" />
        </mxCell>
        <mxCell id="3fQte9pRHBFsXC9MxjXT-3" value="0620 - Data Profiling" style="rounded=0;whiteSpace=wrap;html=1;align=left;verticalAlign=top;" parent="3fQte9pRHBFsXC9MxjXT-1" vertex="1">
          <mxGeometry x="20" y="40" width="1060" height="770" as="geometry" />
        </mxCell>
        <mxCell id="5Xt5Fv4t-drIhkhnObpn-5" style="edgeStyle=orthogonalEdgeStyle;rounded=0;orthogonalLoop=1;jettySize=auto;html=1;endArrow=block;endFill=0;endSize=19;" parent="3fQte9pRHBFsXC9MxjXT-1" source="3fQte9pRHBFsXC9MxjXT-4" target="3fQte9pRHBFsXC9MxjXT-7" edge="1">
          <mxGeometry relative="1" as="geometry" />
        </mxCell>
        <mxCell id="3fQte9pRHBFsXC9MxjXT-4" value="«entity»&lt;br&gt;&lt;b&gt;DataProfileAnnotation&lt;/b&gt;" style="html=1;strokeColor=#d79b00;align=center;fillColor=#ffcd28;gradientColor=#ffa500;" parent="3fQte9pRHBFsXC9MxjXT-1" vertex="1">
          <mxGeometry x="54" y="274" width="207" height="50" as="geometry" />
        </mxCell>
        <mxCell id="3fQte9pRHBFsXC9MxjXT-5" value="length : int&lt;br&gt;inferredDataType : string&lt;br&gt;inferredFormat : string&lt;br&gt;inferredLength : int&lt;br&gt;inferredPrecision : int&lt;br&gt;inferredScale : int&lt;br&gt;profileProperties : map&amp;lt;string, string&amp;gt;&lt;br&gt;profileFlags : map&amp;lt;string, boolean&amp;gt;&lt;br&gt;profileCounts : map&amp;lt;string, long&amp;gt;&lt;br&gt;valueList : array&amp;lt;string&amp;gt;&lt;br&gt;valueCount : map&amp;lt;string, int&amp;gt;&lt;br&gt;valueRangeFrom : string&lt;br&gt;valueRangeTo : string&lt;br&gt;averageValue : string&lt;br&gt;" style="rounded=0;whiteSpace=wrap;html=1;strokeColor=#000000;gradientColor=#ffffff;align=left;" parent="3fQte9pRHBFsXC9MxjXT-1" vertex="1">
          <mxGeometry x="54" y="324" width="207" height="216" as="geometry" />
        </mxCell>
        <mxCell id="3fQte9pRHBFsXC9MxjXT-7" value="«entity»&lt;br&gt;&lt;b&gt;DataFieldAnnotation&lt;/b&gt;" style="html=1;strokeColor=#d79b00;align=center;fillColor=#ffcd28;gradientColor=#ffa500;" parent="3fQte9pRHBFsXC9MxjXT-1" vertex="1">
          <mxGeometry x="77.5" y="152.5" width="160" height="50" as="geometry" />
        </mxCell>
        <mxCell id="5Xt5Fv4t-drIhkhnObpn-6" style="edgeStyle=orthogonalEdgeStyle;rounded=0;orthogonalLoop=1;jettySize=auto;html=1;endArrow=block;endFill=0;endSize=19;" parent="3fQte9pRHBFsXC9MxjXT-1" source="3fQte9pRHBFsXC9MxjXT-9" target="3fQte9pRHBFsXC9MxjXT-7" edge="1">
          <mxGeometry relative="1" as="geometry">
            <Array as="points">
              <mxPoint x="532" y="246" />
              <mxPoint x="158" y="246" />
            </Array>
          </mxGeometry>
        </mxCell>
        <mxCell id="3fQte9pRHBFsXC9MxjXT-9" value="«entity»&lt;br&gt;&lt;b&gt;DataProfileLogAnnotation&lt;/b&gt;" style="html=1;strokeColor=#d79b00;align=center;fillColor=#ffcd28;gradientColor=#ffa500;" parent="3fQte9pRHBFsXC9MxjXT-1" vertex="1">
          <mxGeometry x="404" y="274" width="245" height="50" as="geometry" />
        </mxCell>
        <mxCell id="3fQte9pRHBFsXC9MxjXT-26" value="" style="rounded=0;whiteSpace=wrap;html=1;strokeColor=#000000;gradientColor=#ffffff;align=left;" parent="3fQte9pRHBFsXC9MxjXT-1" vertex="1">
          <mxGeometry x="404" y="323.5" width="245" height="29" as="geometry" />
        </mxCell>
        <mxCell id="3fQte9pRHBFsXC9MxjXT-46" value="«entity»&lt;br&gt;&lt;b&gt;LogFile&lt;/b&gt;" style="html=1;strokeColor=#6c8ebf;align=center;fillColor=#dae8fc;gradientColor=#7ea6e0;" parent="3fQte9pRHBFsXC9MxjXT-1" vertex="1">
          <mxGeometry x="446.5" y="600" width="160" height="50" as="geometry" />
        </mxCell>
        <mxCell id="3fQte9pRHBFsXC9MxjXT-47" value="*" style="text;html=1;strokeColor=none;fillColor=none;align=center;verticalAlign=middle;whiteSpace=wrap;rounded=0;" parent="3fQte9pRHBFsXC9MxjXT-1" vertex="1">
          <mxGeometry x="523.5" y="579.5" width="26" height="18" as="geometry" />
        </mxCell>
        <mxCell id="3fQte9pRHBFsXC9MxjXT-48" value="dataProfileLogFiles" style="text;html=1;strokeColor=none;fillColor=none;align=center;verticalAlign=middle;whiteSpace=wrap;rounded=0;" parent="3fQte9pRHBFsXC9MxjXT-1" vertex="1">
          <mxGeometry x="394" y="576.5" width="130" height="20" as="geometry" />
        </mxCell>
        <mxCell id="3fQte9pRHBFsXC9MxjXT-49" value="*" style="text;html=1;strokeColor=none;fillColor=none;align=center;verticalAlign=middle;whiteSpace=wrap;rounded=0;" parent="3fQte9pRHBFsXC9MxjXT-1" vertex="1">
          <mxGeometry x="526.5" y="357" width="26" height="18" as="geometry" />
        </mxCell>
        <mxCell id="3fQte9pRHBFsXC9MxjXT-50" value="dataProfileAnnotations" style="text;html=1;strokeColor=none;fillColor=none;align=center;verticalAlign=middle;whiteSpace=wrap;rounded=0;" parent="3fQte9pRHBFsXC9MxjXT-1" vertex="1">
          <mxGeometry x="391" y="352.5" width="129" height="20" as="geometry" />
        </mxCell>
        <mxCell id="3fQte9pRHBFsXC9MxjXT-51" value="«relationship»&lt;br&gt;&lt;b&gt;DataProfileLogFile&lt;/b&gt;" style="html=1;strokeColor=#d79b00;align=center;fillColor=#ffcd28;gradientColor=#ffa500;" parent="3fQte9pRHBFsXC9MxjXT-1" vertex="1">
          <mxGeometry x="612" y="459.5" width="206" height="53" as="geometry" />
        </mxCell>
        <mxCell id="3fQte9pRHBFsXC9MxjXT-52" value="" style="endArrow=none;dashed=1;html=1;" parent="3fQte9pRHBFsXC9MxjXT-1" target="3fQte9pRHBFsXC9MxjXT-51" edge="1">
          <mxGeometry width="50" height="50" relative="1" as="geometry">
            <mxPoint x="528" y="485.5" as="sourcePoint" />
            <mxPoint x="641" y="679.5" as="targetPoint" />
          </mxGeometry>
        </mxCell>
        <mxCell id="3fQte9pRHBFsXC9MxjXT-53" value="" style="rounded=0;whiteSpace=wrap;html=1;strokeColor=#000000;gradientColor=#ffffff;align=center;" parent="3fQte9pRHBFsXC9MxjXT-1" vertex="1">
          <mxGeometry x="612" y="512.5" width="206" height="31" as="geometry" />
        </mxCell>
        <mxCell id="5Xt5Fv4t-drIhkhnObpn-7" style="edgeStyle=orthogonalEdgeStyle;rounded=0;orthogonalLoop=1;jettySize=auto;html=1;endArrow=block;endFill=0;endSize=19;" parent="3fQte9pRHBFsXC9MxjXT-1" source="5Xt5Fv4t-drIhkhnObpn-0" target="3fQte9pRHBFsXC9MxjXT-7" edge="1">
          <mxGeometry relative="1" as="geometry">
            <Array as="points">
              <mxPoint x="906" y="246" />
              <mxPoint x="158" y="246" />
            </Array>
          </mxGeometry>
        </mxCell>
        <mxCell id="5Xt5Fv4t-drIhkhnObpn-0" value="«entity»&lt;br&gt;&lt;b&gt;FingerprintAnnotation&lt;/b&gt;" style="html=1;strokeColor=#d79b00;align=center;fillColor=#ffcd28;gradientColor=#ffa500;" parent="3fQte9pRHBFsXC9MxjXT-1" vertex="1">
          <mxGeometry x="802" y="268.5" width="207" height="50" as="geometry" />
        </mxCell>
        <mxCell id="5Xt5Fv4t-drIhkhnObpn-1" value="fingerprint : string&lt;br&gt;fingerprintAlgorithm : string&lt;br&gt;hash : long&lt;br&gt;hashAlgorithm : string" style="rounded=0;whiteSpace=wrap;html=1;strokeColor=#000000;gradientColor=#ffffff;align=left;" parent="3fQte9pRHBFsXC9MxjXT-1" vertex="1">
          <mxGeometry x="802" y="318.5" width="207" height="84.5" as="geometry" />
        </mxCell>
        <mxCell id="3fQte9pRHBFsXC9MxjXT-45" style="edgeStyle=orthogonalEdgeStyle;rounded=0;html=1;endArrow=none;endFill=0;jettySize=auto;orthogonalLoop=1;startArrow=oval;startFill=1;" parent="3fQte9pRHBFsXC9MxjXT-1" source="3fQte9pRHBFsXC9MxjXT-46" target="3fQte9pRHBFsXC9MxjXT-26" edge="1">
          <mxGeometry relative="1" as="geometry" />
        </mxCell>
      </root>
    </mxGraphModel>
  </diagram>
  <diagram name="0625-Data-Class-Discovery" id="-R1DZutaeRMvTo2CzE-K">
    <mxGraphModel dx="1106" dy="773" grid="0" gridSize="10" guides="1" tooltips="1" connect="1" arrows="1" fold="1" page="1" pageScale="1" pageWidth="1169" pageHeight="827" math="0" shadow="0">
      <root>
        <mxCell id="3fQte9pRHBFsXC9MxjXT-0" />
        <mxCell id="3fQte9pRHBFsXC9MxjXT-1" parent="3fQte9pRHBFsXC9MxjXT-0" />
        <mxCell id="3fQte9pRHBFsXC9MxjXT-2" value="" style="rounded=0;whiteSpace=wrap;html=1;align=left;fillColor=#f0a30a;strokeColor=#000000;fontColor=#ffffff;" parent="3fQte9pRHBFsXC9MxjXT-1" vertex="1">
          <mxGeometry x="20" y="20" width="60" height="20" as="geometry" />
        </mxCell>
        <mxCell id="3fQte9pRHBFsXC9MxjXT-3" value="0625 - Data Class Discovery" style="rounded=0;whiteSpace=wrap;html=1;align=left;verticalAlign=top;" parent="3fQte9pRHBFsXC9MxjXT-1" vertex="1">
          <mxGeometry x="20" y="40" width="1060" height="770" as="geometry" />
        </mxCell>
        <mxCell id="3fQte9pRHBFsXC9MxjXT-4" value="«entity»&lt;br&gt;&lt;b&gt;DataClassAnnotation&lt;/b&gt;" style="html=1;strokeColor=#d79b00;align=center;fillColor=#ffcd28;gradientColor=#ffa500;" parent="3fQte9pRHBFsXC9MxjXT-1" vertex="1">
          <mxGeometry x="70" y="235" width="238" height="50" as="geometry" />
        </mxCell>
        <mxCell id="3fQte9pRHBFsXC9MxjXT-5" value="candidateDataClassGUIDs : array&amp;lt;string&amp;gt;&lt;br&gt;matchingValues : long&lt;br&gt;nonMatchingValues : long&lt;br&gt;" style="rounded=0;whiteSpace=wrap;html=1;strokeColor=#000000;gradientColor=#ffffff;align=left;" parent="3fQte9pRHBFsXC9MxjXT-1" vertex="1">
          <mxGeometry x="70" y="285" width="238" height="60" as="geometry" />
        </mxCell>
        <mxCell id="3fQte9pRHBFsXC9MxjXT-6" value="" style="edgeStyle=orthogonalEdgeStyle;rounded=0;html=1;endArrow=none;endFill=0;jettySize=auto;orthogonalLoop=1;exitX=0;exitY=0.5;" parent="3fQte9pRHBFsXC9MxjXT-1" source="3fQte9pRHBFsXC9MxjXT-9" target="3fQte9pRHBFsXC9MxjXT-4" edge="1">
          <mxGeometry relative="1" as="geometry" />
        </mxCell>
        <mxCell id="3fQte9pRHBFsXC9MxjXT-7" value="«entity»&lt;br&gt;&lt;b&gt;DataFieldAnnotation&lt;/b&gt;" style="html=1;strokeColor=#d79b00;align=center;fillColor=#ffcd28;gradientColor=#ffa500;" parent="3fQte9pRHBFsXC9MxjXT-1" vertex="1">
          <mxGeometry x="109.5" y="113.5" width="160" height="50" as="geometry" />
        </mxCell>
        <mxCell id="3fQte9pRHBFsXC9MxjXT-9" value="" style="triangle;whiteSpace=wrap;html=1;strokeColor=#000000;gradientColor=#ffffff;align=center;rotation=-90;" parent="3fQte9pRHBFsXC9MxjXT-1" vertex="1">
          <mxGeometry x="180.5" y="161.5" width="17" height="21" as="geometry" />
        </mxCell>
      </root>
    </mxGraphModel>
  </diagram>
  <diagram name="0630-Semantic-Discovery" id="GZctelpP9FeY2vWRSHyo">
    <mxGraphModel dx="1106" dy="773" grid="0" gridSize="10" guides="1" tooltips="1" connect="1" arrows="1" fold="1" page="1" pageScale="1" pageWidth="1169" pageHeight="827" math="0" shadow="0">
      <root>
        <mxCell id="3fQte9pRHBFsXC9MxjXT-0" />
        <mxCell id="3fQte9pRHBFsXC9MxjXT-1" parent="3fQte9pRHBFsXC9MxjXT-0" />
        <mxCell id="3fQte9pRHBFsXC9MxjXT-2" value="" style="rounded=0;whiteSpace=wrap;html=1;align=left;fillColor=#f0a30a;strokeColor=#000000;fontColor=#ffffff;" parent="3fQte9pRHBFsXC9MxjXT-1" vertex="1">
          <mxGeometry x="20" y="20" width="60" height="20" as="geometry" />
        </mxCell>
        <mxCell id="3fQte9pRHBFsXC9MxjXT-3" value="0630 - Semantic Discovery" style="rounded=0;whiteSpace=wrap;html=1;align=left;verticalAlign=top;" parent="3fQte9pRHBFsXC9MxjXT-1" vertex="1">
          <mxGeometry x="20" y="40" width="1060" height="770" as="geometry" />
        </mxCell>
        <mxCell id="3fQte9pRHBFsXC9MxjXT-4" value="«entity»&lt;br&gt;&lt;b&gt;SemanticAnnotation&lt;/b&gt;" style="html=1;strokeColor=#d79b00;align=center;fillColor=#ffcd28;gradientColor=#ffa500;" parent="3fQte9pRHBFsXC9MxjXT-1" vertex="1">
          <mxGeometry x="70" y="235" width="291" height="50" as="geometry" />
        </mxCell>
        <mxCell id="3fQte9pRHBFsXC9MxjXT-5" value="informalTerm : string&lt;br&gt;candidateGlossaryTermGUIDs : array&amp;lt;string&amp;gt;&lt;br&gt;informalTopic : string&lt;br&gt;candiateGlossaryCategoryGUIDs : array&amp;lt;string&amp;gt;&amp;nbsp;&lt;br&gt;" style="rounded=0;whiteSpace=wrap;html=1;strokeColor=#000000;gradientColor=#ffffff;align=left;" parent="3fQte9pRHBFsXC9MxjXT-1" vertex="1">
          <mxGeometry x="70" y="285" width="290" height="82" as="geometry" />
        </mxCell>
        <mxCell id="3fQte9pRHBFsXC9MxjXT-6" value="" style="edgeStyle=orthogonalEdgeStyle;rounded=0;html=1;endArrow=none;endFill=0;jettySize=auto;orthogonalLoop=1;exitX=0;exitY=0.5;" parent="3fQte9pRHBFsXC9MxjXT-1" source="3fQte9pRHBFsXC9MxjXT-8" target="3fQte9pRHBFsXC9MxjXT-4" edge="1">
          <mxGeometry relative="1" as="geometry" />
        </mxCell>
        <mxCell id="3fQte9pRHBFsXC9MxjXT-7" value="«entity»&lt;br&gt;&lt;b&gt;DataFieldAnnotation&lt;/b&gt;" style="html=1;strokeColor=#d79b00;align=center;fillColor=#ffcd28;gradientColor=#ffa500;" parent="3fQte9pRHBFsXC9MxjXT-1" vertex="1">
          <mxGeometry x="136.5" y="113.5" width="160" height="50" as="geometry" />
        </mxCell>
        <mxCell id="3fQte9pRHBFsXC9MxjXT-8" value="" style="triangle;whiteSpace=wrap;html=1;strokeColor=#000000;gradientColor=#ffffff;align=center;rotation=-90;" parent="3fQte9pRHBFsXC9MxjXT-1" vertex="1">
          <mxGeometry x="207.5" y="161.5" width="17" height="21" as="geometry" />
        </mxCell>
      </root>
    </mxGraphModel>
  </diagram>
  <diagram name="0635-Classification-Discovery" id="5UBDvZQWXgGwnUjIh7yy">
    <mxGraphModel dx="1106" dy="773" grid="0" gridSize="10" guides="1" tooltips="1" connect="1" arrows="1" fold="1" page="1" pageScale="1" pageWidth="1169" pageHeight="827" math="0" shadow="0">
      <root>
        <mxCell id="3fQte9pRHBFsXC9MxjXT-0" />
        <mxCell id="3fQte9pRHBFsXC9MxjXT-1" parent="3fQte9pRHBFsXC9MxjXT-0" />
        <mxCell id="3fQte9pRHBFsXC9MxjXT-2" value="" style="rounded=0;whiteSpace=wrap;html=1;align=left;fillColor=#f0a30a;strokeColor=#000000;fontColor=#ffffff;" parent="3fQte9pRHBFsXC9MxjXT-1" vertex="1">
          <mxGeometry x="20" y="20" width="60" height="20" as="geometry" />
        </mxCell>
        <mxCell id="3fQte9pRHBFsXC9MxjXT-3" value="0635 - Classification Discovery" style="rounded=0;whiteSpace=wrap;html=1;align=left;verticalAlign=top;" parent="3fQte9pRHBFsXC9MxjXT-1" vertex="1">
          <mxGeometry x="20" y="40" width="1060" height="770" as="geometry" />
        </mxCell>
        <mxCell id="3fQte9pRHBFsXC9MxjXT-4" value="«entity»&lt;br&gt;&lt;b&gt;ClassificationAnnotation&lt;/b&gt;" style="html=1;strokeColor=#d79b00;align=center;fillColor=#ffcd28;gradientColor=#ffa500;" parent="3fQte9pRHBFsXC9MxjXT-1" vertex="1">
          <mxGeometry x="70" y="235" width="291" height="50" as="geometry" />
        </mxCell>
        <mxCell id="3fQte9pRHBFsXC9MxjXT-5" value="candidateClassifications : map&amp;lt;string, string&amp;gt;&lt;br&gt;" style="rounded=0;whiteSpace=wrap;html=1;strokeColor=#000000;gradientColor=#ffffff;align=left;" parent="3fQte9pRHBFsXC9MxjXT-1" vertex="1">
          <mxGeometry x="70" y="285" width="290" height="41" as="geometry" />
        </mxCell>
        <mxCell id="3fQte9pRHBFsXC9MxjXT-6" value="" style="edgeStyle=orthogonalEdgeStyle;rounded=0;html=1;endArrow=none;endFill=0;jettySize=auto;orthogonalLoop=1;exitX=0;exitY=0.5;" parent="3fQte9pRHBFsXC9MxjXT-1" source="3fQte9pRHBFsXC9MxjXT-8" target="3fQte9pRHBFsXC9MxjXT-4" edge="1">
          <mxGeometry relative="1" as="geometry" />
        </mxCell>
        <mxCell id="3fQte9pRHBFsXC9MxjXT-7" value="«entity»&lt;br&gt;&lt;b&gt;DataFieldAnnotation&lt;/b&gt;" style="html=1;strokeColor=#d79b00;align=center;fillColor=#ffcd28;gradientColor=#ffa500;" parent="3fQte9pRHBFsXC9MxjXT-1" vertex="1">
          <mxGeometry x="136.5" y="113.5" width="160" height="50" as="geometry" />
        </mxCell>
        <mxCell id="3fQte9pRHBFsXC9MxjXT-8" value="" style="triangle;whiteSpace=wrap;html=1;strokeColor=#000000;gradientColor=#ffffff;align=center;rotation=-90;" parent="3fQte9pRHBFsXC9MxjXT-1" vertex="1">
          <mxGeometry x="207.5" y="161.5" width="17" height="21" as="geometry" />
        </mxCell>
      </root>
    </mxGraphModel>
  </diagram>
  <diagram name="0640-Quality-Scores" id="jJTOMg1ePZBNvLnBZXPd">
    <mxGraphModel dx="1106" dy="773" grid="0" gridSize="10" guides="1" tooltips="1" connect="1" arrows="1" fold="1" page="1" pageScale="1" pageWidth="1169" pageHeight="827" math="0" shadow="0">
      <root>
        <mxCell id="3fQte9pRHBFsXC9MxjXT-0" />
        <mxCell id="3fQte9pRHBFsXC9MxjXT-1" parent="3fQte9pRHBFsXC9MxjXT-0" />
        <mxCell id="3fQte9pRHBFsXC9MxjXT-2" value="" style="rounded=0;whiteSpace=wrap;html=1;align=left;fillColor=#f0a30a;strokeColor=#000000;fontColor=#ffffff;" parent="3fQte9pRHBFsXC9MxjXT-1" vertex="1">
          <mxGeometry x="20" y="20" width="60" height="20" as="geometry" />
        </mxCell>
        <mxCell id="3fQte9pRHBFsXC9MxjXT-3" value="0640 - Quality Scores" style="rounded=0;whiteSpace=wrap;html=1;align=left;verticalAlign=top;" parent="3fQte9pRHBFsXC9MxjXT-1" vertex="1">
          <mxGeometry x="20" y="40" width="1060" height="770" as="geometry" />
        </mxCell>
        <mxCell id="3fQte9pRHBFsXC9MxjXT-4" value="«entity»&lt;br&gt;&lt;b&gt;QualityAnnotation&lt;/b&gt;" style="html=1;strokeColor=#d79b00;align=center;fillColor=#ffcd28;gradientColor=#ffa500;" parent="3fQte9pRHBFsXC9MxjXT-1" vertex="1">
          <mxGeometry x="70" y="235" width="291" height="50" as="geometry" />
        </mxCell>
        <mxCell id="3fQte9pRHBFsXC9MxjXT-5" value="qualityDimension : string&lt;br&gt;qualityScore : int&lt;br&gt;" style="rounded=0;whiteSpace=wrap;html=1;strokeColor=#000000;gradientColor=#ffffff;align=left;" parent="3fQte9pRHBFsXC9MxjXT-1" vertex="1">
          <mxGeometry x="70" y="285" width="290" height="41" as="geometry" />
        </mxCell>
        <mxCell id="3fQte9pRHBFsXC9MxjXT-6" value="" style="edgeStyle=orthogonalEdgeStyle;rounded=0;html=1;endArrow=none;endFill=0;jettySize=auto;orthogonalLoop=1;exitX=0;exitY=0.5;" parent="3fQte9pRHBFsXC9MxjXT-1" source="3fQte9pRHBFsXC9MxjXT-8" target="3fQte9pRHBFsXC9MxjXT-4" edge="1">
          <mxGeometry relative="1" as="geometry" />
        </mxCell>
        <mxCell id="3fQte9pRHBFsXC9MxjXT-7" value="«entity»&lt;br&gt;&lt;b&gt;DataFieldAnnotation&lt;/b&gt;" style="html=1;strokeColor=#d79b00;align=center;fillColor=#ffcd28;gradientColor=#ffa500;" parent="3fQte9pRHBFsXC9MxjXT-1" vertex="1">
          <mxGeometry x="136.5" y="113.5" width="160" height="50" as="geometry" />
        </mxCell>
        <mxCell id="3fQte9pRHBFsXC9MxjXT-8" value="" style="triangle;whiteSpace=wrap;html=1;strokeColor=#000000;gradientColor=#ffffff;align=center;rotation=-90;" parent="3fQte9pRHBFsXC9MxjXT-1" vertex="1">
          <mxGeometry x="207.5" y="161.5" width="17" height="21" as="geometry" />
        </mxCell>
      </root>
    </mxGraphModel>
  </diagram>
  <diagram name="0650-Relationship-Discovery" id="QSSlflKIkFGxEyriOrlx">
    <mxGraphModel dx="1106" dy="773" grid="0" gridSize="10" guides="1" tooltips="1" connect="1" arrows="1" fold="1" page="1" pageScale="1" pageWidth="1169" pageHeight="827" math="0" shadow="0">
      <root>
        <mxCell id="3fQte9pRHBFsXC9MxjXT-0" />
        <mxCell id="3fQte9pRHBFsXC9MxjXT-1" parent="3fQte9pRHBFsXC9MxjXT-0" />
        <mxCell id="3fQte9pRHBFsXC9MxjXT-2" value="" style="rounded=0;whiteSpace=wrap;html=1;align=left;fillColor=#f0a30a;strokeColor=#000000;fontColor=#ffffff;" parent="3fQte9pRHBFsXC9MxjXT-1" vertex="1">
          <mxGeometry x="20" y="20" width="60" height="20" as="geometry" />
        </mxCell>
        <mxCell id="3fQte9pRHBFsXC9MxjXT-3" value="0650 - Relationship Discovery" style="rounded=0;whiteSpace=wrap;html=1;align=left;verticalAlign=top;" parent="3fQte9pRHBFsXC9MxjXT-1" vertex="1">
          <mxGeometry x="20" y="40" width="1060" height="770" as="geometry" />
        </mxCell>
        <mxCell id="3fQte9pRHBFsXC9MxjXT-4" value="«relationship»&lt;br&gt;&lt;b&gt;RelationshipAnnotation&lt;/b&gt;" style="html=1;strokeColor=#d79b00;align=center;fillColor=#ffcd28;gradientColor=#ffa500;" parent="3fQte9pRHBFsXC9MxjXT-1" vertex="1">
          <mxGeometry x="70" y="119" width="291" height="50" as="geometry" />
        </mxCell>
        <mxCell id="3fQte9pRHBFsXC9MxjXT-5" value="&lt;pre&gt;&lt;br&gt;&lt;/pre&gt;" style="rounded=0;whiteSpace=wrap;html=1;strokeColor=#000000;gradientColor=#ffffff;align=left;" parent="3fQte9pRHBFsXC9MxjXT-1" vertex="1">
          <mxGeometry x="70" y="169" width="291" height="173" as="geometry" />
        </mxCell>
        <mxCell id="3fQte9pRHBFsXC9MxjXT-6" value="«entity»&lt;br&gt;&lt;b&gt;Referenceable&lt;/b&gt;" style="html=1;strokeColor=#d6b656;align=center;fillColor=#fff2cc;gradientColor=#ffd966;" parent="3fQte9pRHBFsXC9MxjXT-1" vertex="1">
          <mxGeometry x="584" y="138.5" width="209" height="47" as="geometry" />
        </mxCell>
        <mxCell id="3fQte9pRHBFsXC9MxjXT-7" style="edgeStyle=orthogonalEdgeStyle;rounded=0;html=1;entryX=0;entryY=0.5;endArrow=none;endFill=0;jettySize=auto;orthogonalLoop=1;startArrow=oval;startFill=1;" parent="3fQte9pRHBFsXC9MxjXT-1" source="3fQte9pRHBFsXC9MxjXT-6" target="3fQte9pRHBFsXC9MxjXT-6" edge="1">
          <mxGeometry relative="1" as="geometry">
            <Array as="points">
              <mxPoint x="689" y="118.5" />
              <mxPoint x="564" y="118.5" />
              <mxPoint x="564" y="162.5" />
            </Array>
          </mxGeometry>
        </mxCell>
        <mxCell id="3fQte9pRHBFsXC9MxjXT-8" value="" style="endArrow=none;dashed=1;html=1;exitX=1;exitY=0.5;entryX=1.042;entryY=-0.075;entryPerimeter=0;" parent="3fQte9pRHBFsXC9MxjXT-1" source="3fQte9pRHBFsXC9MxjXT-4" target="3fQte9pRHBFsXC9MxjXT-12" edge="1">
          <mxGeometry width="50" height="50" relative="1" as="geometry">
            <mxPoint x="20" y="881" as="sourcePoint" />
            <mxPoint x="499" y="143" as="targetPoint" />
          </mxGeometry>
        </mxCell>
        <mxCell id="3fQte9pRHBFsXC9MxjXT-9" value="relatedFromObjectAnnotations" style="text;html=1;strokeColor=none;fillColor=none;align=center;verticalAlign=middle;whiteSpace=wrap;rounded=0;" parent="3fQte9pRHBFsXC9MxjXT-1" vertex="1">
          <mxGeometry x="425" y="169" width="147" height="20" as="geometry" />
        </mxCell>
        <mxCell id="3fQte9pRHBFsXC9MxjXT-10" value="relatedToObjectAnnotations" style="text;html=1;strokeColor=none;fillColor=none;align=center;verticalAlign=middle;whiteSpace=wrap;rounded=0;" parent="3fQte9pRHBFsXC9MxjXT-1" vertex="1">
          <mxGeometry x="689" y="118.5" width="172" height="20" as="geometry" />
        </mxCell>
        <mxCell id="3fQte9pRHBFsXC9MxjXT-11" value="*" style="text;html=1;strokeColor=none;fillColor=none;align=center;verticalAlign=middle;whiteSpace=wrap;rounded=0;" parent="3fQte9pRHBFsXC9MxjXT-1" vertex="1">
          <mxGeometry x="699" y="98.5" width="24" height="20" as="geometry" />
        </mxCell>
        <mxCell id="3fQte9pRHBFsXC9MxjXT-12" value="*" style="text;html=1;strokeColor=none;fillColor=none;align=center;verticalAlign=middle;whiteSpace=wrap;rounded=0;" parent="3fQte9pRHBFsXC9MxjXT-1" vertex="1">
          <mxGeometry x="538" y="145.5" width="24" height="20" as="geometry" />
        </mxCell>
        <mxCell id="Iylb2oAe5YX1Iiw9ucXV-0" value="«entity»&lt;br&gt;&lt;b&gt;RelationshipAdviceAnnotation&lt;/b&gt;" style="html=1;strokeColor=#d79b00;align=center;fillColor=#ffcd28;gradientColor=#ffa500;" parent="3fQte9pRHBFsXC9MxjXT-1" vertex="1">
          <mxGeometry x="70" y="531.5" width="291" height="50" as="geometry" />
        </mxCell>
        <mxCell id="Iylb2oAe5YX1Iiw9ucXV-1" value="relatedEntityGUID : string&lt;br&gt;relationshipTypeName : string&lt;br&gt;relationshipProperties : map&amp;lt;string, string&amp;gt;" style="rounded=0;whiteSpace=wrap;html=1;strokeColor=#000000;gradientColor=#ffffff;align=left;" parent="3fQte9pRHBFsXC9MxjXT-1" vertex="1">
          <mxGeometry x="70" y="582" width="290" height="67" as="geometry" />
        </mxCell>
        <mxCell id="Iylb2oAe5YX1Iiw9ucXV-2" value="" style="edgeStyle=orthogonalEdgeStyle;rounded=0;html=1;endArrow=none;endFill=0;jettySize=auto;orthogonalLoop=1;exitX=0;exitY=0.5;" parent="3fQte9pRHBFsXC9MxjXT-1" source="Iylb2oAe5YX1Iiw9ucXV-4" target="Iylb2oAe5YX1Iiw9ucXV-0" edge="1">
          <mxGeometry relative="1" as="geometry" />
        </mxCell>
        <mxCell id="Iylb2oAe5YX1Iiw9ucXV-3" value="«entity»&lt;br&gt;&lt;b&gt;DataFieldAnnotation&lt;/b&gt;&lt;br&gt;" style="html=1;strokeColor=#d79b00;align=center;fillColor=#ffcd28;gradientColor=#ffa500;" parent="3fQte9pRHBFsXC9MxjXT-1" vertex="1">
          <mxGeometry x="136.5" y="410" width="160" height="50" as="geometry" />
        </mxCell>
        <mxCell id="Iylb2oAe5YX1Iiw9ucXV-4" value="" style="triangle;whiteSpace=wrap;html=1;strokeColor=#000000;gradientColor=#ffffff;align=center;rotation=-90;" parent="3fQte9pRHBFsXC9MxjXT-1" vertex="1">
          <mxGeometry x="207.5" y="458" width="17" height="21" as="geometry" />
        </mxCell>
        <mxCell id="38S-yCxO8iM6tswf1ojL-0" value="discoveryReportGUID : string&lt;br&gt;&lt;span style=&quot;&quot;&gt;annotationType : string&lt;br&gt;&lt;/span&gt;&lt;span&gt;summary : string&lt;br&gt;&lt;/span&gt;&lt;span&gt;confidenceLevel : int&lt;br&gt;&lt;/span&gt;&lt;span&gt;expression : string&lt;br&gt;&lt;/span&gt;&lt;span&gt;explanation : string&lt;br&gt;&lt;/span&gt;&lt;span&gt;analysisStep : string&lt;br&gt;&lt;/span&gt;&lt;span&gt;jsonProperties : string&lt;br&gt;&lt;/span&gt;&lt;span&gt;additionalProperties : map&amp;lt;string, string&lt;br&gt;&lt;/span&gt;&lt;span&gt;annotationStatus : AnnotationStatus&lt;/span&gt;&lt;span&gt;&lt;br&gt;&lt;/span&gt;" style="text;html=1;align=left;verticalAlign=middle;resizable=0;points=[];autosize=1;strokeColor=none;fillColor=none;fontSize=12;" vertex="1" parent="3fQte9pRHBFsXC9MxjXT-1">
          <mxGeometry x="80" y="181" width="222" height="144" as="geometry" />
        </mxCell>
      </root>
    </mxGraphModel>
  </diagram>
  <diagram name="0655-Asset-Deduplication" id="s3rT8nKl2r9UI8oUASif">
    <mxGraphModel dx="1106" dy="773" grid="0" gridSize="10" guides="1" tooltips="1" connect="1" arrows="1" fold="1" page="1" pageScale="1" pageWidth="1169" pageHeight="827" math="0" shadow="0">
      <root>
        <mxCell id="sTSijp9kv0P3urewqXaE-0" />
        <mxCell id="sTSijp9kv0P3urewqXaE-1" parent="sTSijp9kv0P3urewqXaE-0" />
        <mxCell id="sTSijp9kv0P3urewqXaE-2" value="" style="rounded=0;whiteSpace=wrap;html=1;align=left;fillColor=#f0a30a;strokeColor=#000000;fontColor=#ffffff;" parent="sTSijp9kv0P3urewqXaE-1" vertex="1">
          <mxGeometry x="20" y="20" width="60" height="20" as="geometry" />
        </mxCell>
        <mxCell id="sTSijp9kv0P3urewqXaE-3" value="0655 - Asset Deduplication" style="rounded=0;whiteSpace=wrap;html=1;align=left;verticalAlign=top;" parent="sTSijp9kv0P3urewqXaE-1" vertex="1">
          <mxGeometry x="20" y="40" width="1060" height="770" as="geometry" />
        </mxCell>
        <mxCell id="sTSijp9kv0P3urewqXaE-13" value="«entity»&lt;br&gt;&lt;b&gt;SuspectDuplicateAnnotation&lt;/b&gt;" style="html=1;strokeColor=#d79b00;align=center;fillColor=#ffcd28;gradientColor=#ffa500;" parent="sTSijp9kv0P3urewqXaE-1" vertex="1">
          <mxGeometry x="103" y="185" width="302" height="50" as="geometry" />
        </mxCell>
        <mxCell id="sTSijp9kv0P3urewqXaE-14" value="duplicateAnchorGUIDs : array&amp;lt;string&amp;gt;&lt;br&gt;matchingPropertyNames : array&amp;lt;string&amp;gt;&lt;br&gt;matchingClassificationNames : array&amp;lt;string&amp;gt;&lt;br&gt;matchingAttachmentGUIDs : array&amp;lt;string&amp;gt;&lt;br&gt;matchngRelationshipGUIDs : array&amp;lt;string&amp;gt;" style="rounded=0;whiteSpace=wrap;html=1;strokeColor=#000000;gradientColor=#ffffff;align=left;" parent="sTSijp9kv0P3urewqXaE-1" vertex="1">
          <mxGeometry x="103" y="235" width="301" height="82" as="geometry" />
        </mxCell>
        <mxCell id="sTSijp9kv0P3urewqXaE-15" value="" style="edgeStyle=orthogonalEdgeStyle;rounded=0;html=1;endArrow=none;endFill=0;jettySize=auto;orthogonalLoop=1;exitX=0;exitY=0.5;" parent="sTSijp9kv0P3urewqXaE-1" source="sTSijp9kv0P3urewqXaE-17" target="sTSijp9kv0P3urewqXaE-13" edge="1">
          <mxGeometry relative="1" as="geometry" />
        </mxCell>
        <mxCell id="sTSijp9kv0P3urewqXaE-16" value="«entity»&lt;br&gt;&lt;b&gt;Annotation&lt;/b&gt;" style="html=1;strokeColor=#d79b00;align=center;fillColor=#ffcd28;gradientColor=#ffa500;" parent="sTSijp9kv0P3urewqXaE-1" vertex="1">
          <mxGeometry x="373.5" y="77" width="160" height="50" as="geometry" />
        </mxCell>
        <mxCell id="YoL_IrOx11B0TQJ6n2ap-13" style="edgeStyle=orthogonalEdgeStyle;rounded=0;orthogonalLoop=1;jettySize=auto;html=1;exitX=0;exitY=0.5;exitDx=0;exitDy=0;entryX=0.5;entryY=0;entryDx=0;entryDy=0;endArrow=none;endFill=0;" parent="sTSijp9kv0P3urewqXaE-1" source="sTSijp9kv0P3urewqXaE-17" target="YoL_IrOx11B0TQJ6n2ap-8" edge="1">
          <mxGeometry relative="1" as="geometry" />
        </mxCell>
        <mxCell id="sTSijp9kv0P3urewqXaE-17" value="" style="triangle;whiteSpace=wrap;html=1;strokeColor=#000000;gradientColor=#ffffff;align=center;rotation=-90;" parent="sTSijp9kv0P3urewqXaE-1" vertex="1">
          <mxGeometry x="444.5" y="125" width="17" height="21" as="geometry" />
        </mxCell>
        <mxCell id="YoL_IrOx11B0TQJ6n2ap-0" value="«entity»&lt;br&gt;&lt;b&gt;DivergentValueAnnotation&lt;/b&gt;" style="html=1;strokeColor=#d79b00;align=center;fillColor=#ffcd28;gradientColor=#ffa500;" parent="sTSijp9kv0P3urewqXaE-1" vertex="1">
          <mxGeometry x="28" y="373" width="227" height="50" as="geometry" />
        </mxCell>
        <mxCell id="YoL_IrOx11B0TQJ6n2ap-1" value="divergentPropertyNames : array&amp;lt;string&amp;gt;" style="rounded=0;whiteSpace=wrap;html=1;strokeColor=#000000;gradientColor=#ffffff;align=left;" parent="sTSijp9kv0P3urewqXaE-1" vertex="1">
          <mxGeometry x="28" y="424" width="225" height="35" as="geometry" />
        </mxCell>
        <mxCell id="YoL_IrOx11B0TQJ6n2ap-3" value="«entity»&lt;br&gt;&lt;b&gt;DivergentAttachmentAnnotation&lt;/b&gt;" style="html=1;strokeColor=#d79b00;align=center;fillColor=#ffcd28;gradientColor=#ffa500;" parent="sTSijp9kv0P3urewqXaE-1" vertex="1">
          <mxGeometry x="832" y="505" width="227" height="50" as="geometry" />
        </mxCell>
        <mxCell id="YoL_IrOx11B0TQJ6n2ap-4" value="attachmentGUID : string&lt;br&gt;duplicateAttachmentGUID&amp;nbsp;: string" style="rounded=0;whiteSpace=wrap;html=1;strokeColor=#000000;gradientColor=#ffffff;align=left;" parent="sTSijp9kv0P3urewqXaE-1" vertex="1">
          <mxGeometry x="832" y="556" width="226" height="48" as="geometry" />
        </mxCell>
        <mxCell id="YoL_IrOx11B0TQJ6n2ap-5" value="«entity»&lt;br&gt;&lt;b&gt;DivergentRelationshipAnnotation&lt;/b&gt;" style="html=1;strokeColor=#d79b00;align=center;fillColor=#ffcd28;gradientColor=#ffa500;" parent="sTSijp9kv0P3urewqXaE-1" vertex="1">
          <mxGeometry x="594" y="373" width="308" height="50" as="geometry" />
        </mxCell>
        <mxCell id="YoL_IrOx11B0TQJ6n2ap-6" value="divergentRelationshipGUID&amp;nbsp;: string&lt;br&gt;divergentRelationshipPropertyNames : array&amp;lt;string&amp;gt;" style="rounded=0;whiteSpace=wrap;html=1;strokeColor=#000000;gradientColor=#ffffff;align=left;" parent="sTSijp9kv0P3urewqXaE-1" vertex="1">
          <mxGeometry x="594" y="424" width="309" height="48" as="geometry" />
        </mxCell>
        <mxCell id="YoL_IrOx11B0TQJ6n2ap-8" value="«entity»&lt;br&gt;&lt;b&gt;DivergentDuplicateAnnotation&lt;/b&gt;" style="html=1;strokeColor=#d79b00;align=center;fillColor=#ffcd28;gradientColor=#ffa500;" parent="sTSijp9kv0P3urewqXaE-1" vertex="1">
          <mxGeometry x="533.5" y="185" width="227" height="50" as="geometry" />
        </mxCell>
        <mxCell id="YoL_IrOx11B0TQJ6n2ap-9" value="duplicateAnchorGUID : string" style="rounded=0;whiteSpace=wrap;html=1;strokeColor=#000000;gradientColor=#ffffff;align=left;" parent="sTSijp9kv0P3urewqXaE-1" vertex="1">
          <mxGeometry x="534" y="236" width="226" height="35" as="geometry" />
        </mxCell>
        <mxCell id="YoL_IrOx11B0TQJ6n2ap-15" style="edgeStyle=orthogonalEdgeStyle;rounded=0;orthogonalLoop=1;jettySize=auto;html=1;endArrow=none;endFill=0;" parent="sTSijp9kv0P3urewqXaE-1" source="YoL_IrOx11B0TQJ6n2ap-14" target="YoL_IrOx11B0TQJ6n2ap-0" edge="1">
          <mxGeometry relative="1" as="geometry">
            <Array as="points">
              <mxPoint x="647" y="331" />
              <mxPoint x="136" y="331" />
            </Array>
          </mxGeometry>
        </mxCell>
        <mxCell id="YoL_IrOx11B0TQJ6n2ap-25" style="edgeStyle=orthogonalEdgeStyle;rounded=0;orthogonalLoop=1;jettySize=auto;html=1;exitX=0;exitY=0.5;exitDx=0;exitDy=0;endArrow=none;endFill=0;" parent="sTSijp9kv0P3urewqXaE-1" source="YoL_IrOx11B0TQJ6n2ap-14" target="YoL_IrOx11B0TQJ6n2ap-23" edge="1">
          <mxGeometry relative="1" as="geometry" />
        </mxCell>
        <mxCell id="YoL_IrOx11B0TQJ6n2ap-27" style="edgeStyle=orthogonalEdgeStyle;rounded=0;orthogonalLoop=1;jettySize=auto;html=1;endArrow=none;endFill=0;" parent="sTSijp9kv0P3urewqXaE-1" source="YoL_IrOx11B0TQJ6n2ap-14" target="YoL_IrOx11B0TQJ6n2ap-5" edge="1">
          <mxGeometry relative="1" as="geometry" />
        </mxCell>
        <mxCell id="YoL_IrOx11B0TQJ6n2ap-28" style="edgeStyle=orthogonalEdgeStyle;rounded=0;orthogonalLoop=1;jettySize=auto;html=1;entryX=0.5;entryY=0;entryDx=0;entryDy=0;endArrow=none;endFill=0;" parent="sTSijp9kv0P3urewqXaE-1" source="YoL_IrOx11B0TQJ6n2ap-14" target="YoL_IrOx11B0TQJ6n2ap-3" edge="1">
          <mxGeometry relative="1" as="geometry">
            <Array as="points">
              <mxPoint x="647" y="331" />
              <mxPoint x="946" y="331" />
            </Array>
          </mxGeometry>
        </mxCell>
        <mxCell id="YoL_IrOx11B0TQJ6n2ap-14" value="" style="triangle;whiteSpace=wrap;html=1;strokeColor=#000000;gradientColor=#ffffff;align=center;rotation=-90;" parent="sTSijp9kv0P3urewqXaE-1" vertex="1">
          <mxGeometry x="638.5" y="270" width="17" height="21" as="geometry" />
        </mxCell>
        <mxCell id="YoL_IrOx11B0TQJ6n2ap-31" style="edgeStyle=orthogonalEdgeStyle;rounded=0;orthogonalLoop=1;jettySize=auto;html=1;endArrow=none;endFill=0;" parent="sTSijp9kv0P3urewqXaE-1" source="YoL_IrOx11B0TQJ6n2ap-16" target="YoL_IrOx11B0TQJ6n2ap-19" edge="1">
          <mxGeometry relative="1" as="geometry">
            <Array as="points">
              <mxPoint x="946" y="647" />
              <mxPoint x="912" y="647" />
            </Array>
          </mxGeometry>
        </mxCell>
        <mxCell id="YoL_IrOx11B0TQJ6n2ap-32" style="edgeStyle=orthogonalEdgeStyle;rounded=0;orthogonalLoop=1;jettySize=auto;html=1;endArrow=none;endFill=0;" parent="sTSijp9kv0P3urewqXaE-1" source="YoL_IrOx11B0TQJ6n2ap-16" target="YoL_IrOx11B0TQJ6n2ap-29" edge="1">
          <mxGeometry relative="1" as="geometry">
            <Array as="points">
              <mxPoint x="946" y="647" />
              <mxPoint x="588" y="647" />
            </Array>
          </mxGeometry>
        </mxCell>
        <mxCell id="YoL_IrOx11B0TQJ6n2ap-33" style="edgeStyle=orthogonalEdgeStyle;rounded=0;orthogonalLoop=1;jettySize=auto;html=1;endArrow=none;endFill=0;" parent="sTSijp9kv0P3urewqXaE-1" source="YoL_IrOx11B0TQJ6n2ap-16" target="YoL_IrOx11B0TQJ6n2ap-17" edge="1">
          <mxGeometry relative="1" as="geometry">
            <Array as="points">
              <mxPoint x="946" y="647" />
              <mxPoint x="290" y="647" />
            </Array>
          </mxGeometry>
        </mxCell>
        <mxCell id="YoL_IrOx11B0TQJ6n2ap-16" value="" style="triangle;whiteSpace=wrap;html=1;strokeColor=#000000;gradientColor=#ffffff;align=center;rotation=-90;" parent="sTSijp9kv0P3urewqXaE-1" vertex="1">
          <mxGeometry x="937" y="604" width="17" height="21" as="geometry" />
        </mxCell>
        <mxCell id="YoL_IrOx11B0TQJ6n2ap-17" value="«entity»&lt;br&gt;&lt;b&gt;DivergentAttachmentValueAnnotation&lt;/b&gt;" style="html=1;strokeColor=#d79b00;align=center;fillColor=#ffcd28;gradientColor=#ffa500;" parent="sTSijp9kv0P3urewqXaE-1" vertex="1">
          <mxGeometry x="161.5" y="682.5" width="257" height="50" as="geometry" />
        </mxCell>
        <mxCell id="YoL_IrOx11B0TQJ6n2ap-18" value="divergentPropertyNames : array&amp;lt;string&amp;gt;" style="rounded=0;whiteSpace=wrap;html=1;strokeColor=#000000;gradientColor=#ffffff;align=left;" parent="sTSijp9kv0P3urewqXaE-1" vertex="1">
          <mxGeometry x="162.5" y="733.5" width="255" height="35" as="geometry" />
        </mxCell>
        <mxCell id="YoL_IrOx11B0TQJ6n2ap-19" value="«entity»&lt;br&gt;&lt;b&gt;DivergentAttachmentRelationshipAnnotation&lt;/b&gt;" style="html=1;strokeColor=#d79b00;align=center;fillColor=#ffcd28;gradientColor=#ffa500;" parent="sTSijp9kv0P3urewqXaE-1" vertex="1">
          <mxGeometry x="765" y="682.5" width="293" height="50" as="geometry" />
        </mxCell>
        <mxCell id="YoL_IrOx11B0TQJ6n2ap-20" value="divergentRelationshipGUID&amp;nbsp;: string&lt;br&gt;divergentRelationshipPropertyNames : array&amp;lt;string&amp;gt;" style="rounded=0;whiteSpace=wrap;html=1;strokeColor=#000000;gradientColor=#ffffff;align=left;" parent="sTSijp9kv0P3urewqXaE-1" vertex="1">
          <mxGeometry x="765" y="733.5" width="293" height="48" as="geometry" />
        </mxCell>
        <mxCell id="YoL_IrOx11B0TQJ6n2ap-23" value="«entity»&lt;br&gt;&lt;b&gt;DivergentClassificationAnnotation&lt;/b&gt;" style="html=1;strokeColor=#d79b00;align=center;fillColor=#ffcd28;gradientColor=#ffa500;" parent="sTSijp9kv0P3urewqXaE-1" vertex="1">
          <mxGeometry x="278" y="373" width="304" height="50" as="geometry" />
        </mxCell>
        <mxCell id="YoL_IrOx11B0TQJ6n2ap-24" value="divergentClassificationName : string&lt;br&gt;divergentClassificationPropertyNames : array&amp;lt;string&amp;gt;" style="rounded=0;whiteSpace=wrap;html=1;strokeColor=#000000;gradientColor=#ffffff;align=left;" parent="sTSijp9kv0P3urewqXaE-1" vertex="1">
          <mxGeometry x="278" y="424" width="303" height="48" as="geometry" />
        </mxCell>
        <mxCell id="YoL_IrOx11B0TQJ6n2ap-29" value="«entity»&lt;br&gt;&lt;b&gt;DivergentAttachmentClassificationAnnotation&lt;/b&gt;" style="html=1;strokeColor=#d79b00;align=center;fillColor=#ffcd28;gradientColor=#ffa500;" parent="sTSijp9kv0P3urewqXaE-1" vertex="1">
          <mxGeometry x="431.5" y="682.5" width="313" height="50" as="geometry" />
        </mxCell>
        <mxCell id="YoL_IrOx11B0TQJ6n2ap-30" value="divergentClassificationName : string&lt;br&gt;divergentClassificationPropertyNames : array&amp;lt;string&amp;gt;" style="rounded=0;whiteSpace=wrap;html=1;strokeColor=#000000;gradientColor=#ffffff;align=left;" parent="sTSijp9kv0P3urewqXaE-1" vertex="1">
          <mxGeometry x="431.5" y="733.5" width="313" height="48" as="geometry" />
        </mxCell>
      </root>
    </mxGraphModel>
  </diagram>
  <diagram name="0660-Data-Source-Measurements" id="LoHBolUOBCRSNZfynwki">
    <mxGraphModel dx="1106" dy="773" grid="0" gridSize="10" guides="1" tooltips="1" connect="1" arrows="1" fold="1" page="1" pageScale="1" pageWidth="1169" pageHeight="827" math="0" shadow="0">
      <root>
        <mxCell id="3fQte9pRHBFsXC9MxjXT-0" />
        <mxCell id="3fQte9pRHBFsXC9MxjXT-1" parent="3fQte9pRHBFsXC9MxjXT-0" />
        <mxCell id="3fQte9pRHBFsXC9MxjXT-2" value="" style="rounded=0;whiteSpace=wrap;html=1;align=left;fillColor=#f0a30a;strokeColor=#000000;fontColor=#ffffff;" parent="3fQte9pRHBFsXC9MxjXT-1" vertex="1">
          <mxGeometry x="20" y="20" width="60" height="20" as="geometry" />
        </mxCell>
        <mxCell id="3fQte9pRHBFsXC9MxjXT-3" value="0660 - Data Source Measurements" style="rounded=0;whiteSpace=wrap;html=1;align=left;verticalAlign=top;" parent="3fQte9pRHBFsXC9MxjXT-1" vertex="1">
          <mxGeometry x="20" y="40" width="1060" height="770" as="geometry" />
        </mxCell>
        <mxCell id="3fQte9pRHBFsXC9MxjXT-4" value="«entity»&lt;br&gt;&lt;b&gt;DataSourceMeasurementAnnotation&lt;/b&gt;" style="html=1;strokeColor=#d79b00;align=center;fillColor=#ffcd28;gradientColor=#ffa500;" parent="3fQte9pRHBFsXC9MxjXT-1" vertex="1">
          <mxGeometry x="362" y="264.5" width="291" height="50" as="geometry" />
        </mxCell>
        <mxCell id="3fQte9pRHBFsXC9MxjXT-5" value="dataSourceProperties : map&amp;lt;string, string&amp;gt;" style="rounded=0;whiteSpace=wrap;html=1;strokeColor=#000000;gradientColor=#ffffff;align=left;" parent="3fQte9pRHBFsXC9MxjXT-1" vertex="1">
          <mxGeometry x="362" y="314.5" width="290" height="41" as="geometry" />
        </mxCell>
        <mxCell id="3fQte9pRHBFsXC9MxjXT-6" value="" style="edgeStyle=orthogonalEdgeStyle;rounded=0;html=1;endArrow=none;endFill=0;jettySize=auto;orthogonalLoop=1;exitX=0;exitY=0.5;" parent="3fQte9pRHBFsXC9MxjXT-1" source="3fQte9pRHBFsXC9MxjXT-8" target="3fQte9pRHBFsXC9MxjXT-4" edge="1">
          <mxGeometry relative="1" as="geometry" />
        </mxCell>
        <mxCell id="3fQte9pRHBFsXC9MxjXT-7" value="«entity»&lt;br&gt;&lt;b&gt;Annotation&lt;/b&gt;" style="html=1;strokeColor=#d79b00;align=center;fillColor=#ffcd28;gradientColor=#ffa500;" parent="3fQte9pRHBFsXC9MxjXT-1" vertex="1">
          <mxGeometry x="428.5" y="143" width="160" height="50" as="geometry" />
        </mxCell>
        <mxCell id="3fQte9pRHBFsXC9MxjXT-8" value="" style="triangle;whiteSpace=wrap;html=1;strokeColor=#000000;gradientColor=#ffffff;align=center;rotation=-90;" parent="3fQte9pRHBFsXC9MxjXT-1" vertex="1">
          <mxGeometry x="498.5" y="191" width="17" height="21" as="geometry" />
        </mxCell>
        <mxCell id="3fQte9pRHBFsXC9MxjXT-9" value="«entity»&lt;br&gt;&lt;b&gt;DataSourcePhysicalStatusAnnotation&lt;/b&gt;" style="html=1;strokeColor=#d79b00;align=center;fillColor=#ffcd28;gradientColor=#ffa500;" parent="3fQte9pRHBFsXC9MxjXT-1" vertex="1">
          <mxGeometry x="362" y="428" width="291" height="50" as="geometry" />
        </mxCell>
        <mxCell id="3fQte9pRHBFsXC9MxjXT-10" value="sourceCreateTime : date&lt;br&gt;sourceUpdateTime : date&lt;br&gt;size : int&lt;br&gt;encoding : string" style="rounded=0;whiteSpace=wrap;html=1;strokeColor=#000000;gradientColor=#ffffff;align=left;" parent="3fQte9pRHBFsXC9MxjXT-1" vertex="1">
          <mxGeometry x="362" y="478.5" width="290" height="79" as="geometry" />
        </mxCell>
        <mxCell id="3fQte9pRHBFsXC9MxjXT-11" value="" style="edgeStyle=orthogonalEdgeStyle;rounded=0;html=1;endArrow=none;endFill=0;jettySize=auto;orthogonalLoop=1;exitX=0;exitY=0.5;" parent="3fQte9pRHBFsXC9MxjXT-1" source="3fQte9pRHBFsXC9MxjXT-12" target="3fQte9pRHBFsXC9MxjXT-9" edge="1">
          <mxGeometry relative="1" as="geometry" />
        </mxCell>
        <mxCell id="3fQte9pRHBFsXC9MxjXT-12" value="" style="triangle;whiteSpace=wrap;html=1;strokeColor=#000000;gradientColor=#ffffff;align=center;rotation=-90;" parent="3fQte9pRHBFsXC9MxjXT-1" vertex="1">
          <mxGeometry x="499.5" y="354.5" width="17" height="21" as="geometry" />
        </mxCell>
      </root>
    </mxGraphModel>
  </diagram>
  <diagram name="0690-Request-For-Action" id="Q7AzQiPNs1MVR_Eyc2H3">
    <mxGraphModel dx="1106" dy="773" grid="0" gridSize="10" guides="1" tooltips="1" connect="1" arrows="1" fold="1" page="1" pageScale="1" pageWidth="1169" pageHeight="827" math="0" shadow="0">
      <root>
        <mxCell id="3fQte9pRHBFsXC9MxjXT-0" />
        <mxCell id="3fQte9pRHBFsXC9MxjXT-1" parent="3fQte9pRHBFsXC9MxjXT-0" />
        <mxCell id="3fQte9pRHBFsXC9MxjXT-2" value="" style="rounded=0;whiteSpace=wrap;html=1;align=left;fillColor=#f0a30a;strokeColor=#000000;fontColor=#ffffff;" parent="3fQte9pRHBFsXC9MxjXT-1" vertex="1">
          <mxGeometry x="20" y="20" width="60" height="20" as="geometry" />
        </mxCell>
        <mxCell id="3fQte9pRHBFsXC9MxjXT-3" value="0690 - Request For Action" style="rounded=0;whiteSpace=wrap;html=1;align=left;verticalAlign=top;" parent="3fQte9pRHBFsXC9MxjXT-1" vertex="1">
          <mxGeometry x="20" y="40" width="1060" height="770" as="geometry" />
        </mxCell>
        <mxCell id="3fQte9pRHBFsXC9MxjXT-4" value="«entity»&lt;br&gt;&lt;b&gt;RequestForAction&lt;/b&gt;" style="html=1;strokeColor=#d79b00;align=center;fillColor=#ffcd28;gradientColor=#ffa500;" parent="3fQte9pRHBFsXC9MxjXT-1" vertex="1">
          <mxGeometry x="214" y="286.5" width="249" height="50" as="geometry" />
        </mxCell>
        <mxCell id="3fQte9pRHBFsXC9MxjXT-5" value="&lt;span&gt;discoveryActivity : string&lt;br&gt;&lt;/span&gt;&lt;span&gt;actionRequested : string&lt;/span&gt;&lt;br&gt;&lt;span&gt;actionProperties : map&amp;lt;string, string&amp;gt;&lt;br&gt;&lt;/span&gt;" style="rounded=0;whiteSpace=wrap;html=1;strokeColor=#000000;gradientColor=#ffffff;align=left;" parent="3fQte9pRHBFsXC9MxjXT-1" vertex="1">
          <mxGeometry x="215" y="336.5" width="247" height="59" as="geometry" />
        </mxCell>
        <mxCell id="3fQte9pRHBFsXC9MxjXT-6" value="" style="edgeStyle=orthogonalEdgeStyle;rounded=0;html=1;endArrow=none;endFill=0;jettySize=auto;orthogonalLoop=1;exitX=0;exitY=0.5;" parent="3fQte9pRHBFsXC9MxjXT-1" source="3fQte9pRHBFsXC9MxjXT-8" target="3fQte9pRHBFsXC9MxjXT-4" edge="1">
          <mxGeometry relative="1" as="geometry" />
        </mxCell>
        <mxCell id="3fQte9pRHBFsXC9MxjXT-7" value="«entity»&lt;br&gt;&lt;b&gt;DataFieldAnnotation&lt;/b&gt;" style="html=1;strokeColor=#d79b00;align=center;fillColor=#ffcd28;gradientColor=#ffa500;" parent="3fQte9pRHBFsXC9MxjXT-1" vertex="1">
          <mxGeometry x="259.5" y="165" width="160" height="50" as="geometry" />
        </mxCell>
        <mxCell id="3fQte9pRHBFsXC9MxjXT-8" value="" style="triangle;whiteSpace=wrap;html=1;strokeColor=#000000;gradientColor=#ffffff;align=center;rotation=-90;" parent="3fQte9pRHBFsXC9MxjXT-1" vertex="1">
          <mxGeometry x="330.5" y="213" width="17" height="21" as="geometry" />
        </mxCell>
      </root>
    </mxGraphModel>
  </diagram>
</mxfile>
